<svg xmlns="http://www.w3.org/2000/svg" width="121" height="121" viewBox="0 0 121 121">
  <g id="Group_25062" data-name="Group 25062" transform="translate(-215 -2249)">
    <g id="Group_9933" data-name="Group 9933" transform="translate(2476 6156)">
      <circle id="Ellipse_497" data-name="Ellipse 497" cx="60.5" cy="60.5" r="60.5" transform="translate(-2261 -3907)" fill="#92934e"/>
      <path id="Path_1178" data-name="Path 1178" d="M53.993,0A53.993,53.993,0,1,1,0,53.993,53.993,53.993,0,0,1,53.993,0Z" transform="translate(-2254 -3900)" fill="#fff"/>
    </g>
    <g id="Group_25030" data-name="Group 25030" transform="translate(-1227.073 1887.835)">
      <g id="Group_25029" data-name="Group 25029" transform="translate(1471.073 395.165)">
        <path id="Path_65269" data-name="Path 65269" d="M1499.194,402.08a19.906,19.906,0,0,0-11.8,3.615l6.726,5.289h10.288l6.706-5.273a18.025,18.025,0,0,0-10-3.6c-.634-.022-1.276-.033-1.922-.033Zm-12.8,5.518a6.106,6.106,0,0,0-.284,2.284,11.591,11.591,0,0,0,3.39,7.52c.061.253.128.5.2.75l3.944.673-.779-6.132Zm25.741,0-6.471,5.1-.785,6.132,3.95-.673c.072-.247.137-.5.2-.75a11.581,11.581,0,0,0,3.392-7.52A6.1,6.1,0,0,0,1512.141,407.6ZM1490.6,420.446a12.084,12.084,0,0,0,1.895,2.8c-.049.029-.1.057-.149.086-5.263,3.862-13.476,4.8-17.244,9.6a17.391,17.391,0,0,0-4.032,10.775v.37c0,.249.016.491.03.74.1,1.672,1.995,2.214,3.4,2.554a142.335,142.335,0,0,0,24.767,2.578c1.024,0,2.059-.016,3.1-.049a4.1,4.1,0,0,1,.429-3.22c5.381-5.839,11.165-11.294,16.737-16.933-4.106-2.335-9.509-3.6-13.345-6.412-.049-.031-.1-.057-.149-.088a12.044,12.044,0,0,0,1.895-2.793l-3.85.656c-.512.086-2.664.119-4.815.115s-4.3-.029-4.815-.115l-3.85-.656Zm35.1,16.048c-4.116,4.242-8.405,8.323-12.557,12.527,3.572-.437,7.207-1,10.889-1.658,1.406-.341,3.3-.881,3.4-2.554.015-.249.025-.491.029-.738,0-.125,0-.249,0-.372a16.117,16.117,0,0,0-1.762-7.205Zm-46.018,2.462h9.771a1.057,1.057,0,1,1,0,2.114h-9.771a1.057,1.057,0,0,1,0-2.114Z" transform="translate(-1471.073 -388.545)" fill="#ed8730"/>
        <path id="Path_65270" data-name="Path 65270" d="M1491.743,395.165a.3.3,0,0,0-.059,0,25.223,25.223,0,0,0-6.675.855h0l-.076.012a11.068,11.068,0,0,0-5.535,3.106l0,0a1.952,1.952,0,0,0-.5,1.311v0l.039,9.6a.819.819,0,0,0,.693.775c.374.045.382-.133.855-.587a10.788,10.788,0,0,1,4.819-2.785l.053-.01a25.691,25.691,0,0,1,12.88,0,.414.414,0,0,0,.049.01,10.789,10.789,0,0,1,4.821,2.785c.474.454.48.632.854.587a.819.819,0,0,0,.693-.775l.039-9.6v0a1.958,1.958,0,0,0-.5-1.311l0,0a11.075,11.075,0,0,0-5.537-3.106c-.023-.006-.047-.008-.073-.012h-.008a25.291,25.291,0,0,0-6.674-.855l-.057,0h-.088Zm.045,1.165a4.483,4.483,0,1,1-4.486,4.482A4.482,4.482,0,0,1,1491.788,396.33Z" transform="translate(-1463.59 -395.165)" fill="#ed8730"/>
        <path id="Path_65271" data-name="Path 65271" d="M1487.379,395.963a.844.844,0,0,0-.83.853v2.2h-2.2a.841.841,0,1,0-.061,1.681h2.259v2.2a.842.842,0,0,0,1.683,0v-2.2h2.2a.841.841,0,0,0,.061-1.681.321.321,0,0,0-.061,0h-2.2v-2.2a.841.841,0,0,0-.828-.853Z" transform="translate(-1459.195 -394.401)" fill="#ed8730"/>
        <g id="Group_25028" data-name="Group 25028" transform="translate(33.011 30.047)">
          <path id="Path_65272" data-name="Path 65272" d="M1507.7,410.83a7.065,7.065,0,0,1-.049,1.585c-.231,1.9-.946,2.9-3.322,4.643a4.63,4.63,0,0,0-2.335,3.388l-.269,1.276-2.726-2.729,8.409-8.409c.217-.211.264.115.292.243Z" transform="translate(-1477.353 -410.516)" fill="#ed8730"/>
          <path id="Path_65273" data-name="Path 65273" d="M1512.407,418.128c.256.256-.393,1.055-1.018,1.681L1492.6,438.6a2.684,2.684,0,0,1-3.8.006l-.069-.068a2.68,2.68,0,0,1,.008-3.8q10.012-10.012,18.793-18.793c.627-.624,1.425-1.274,1.682-1.018,1.083,1.073,2.236,2.224,3.2,3.2Z" transform="translate(-1487.938 -406.346)" fill="#ed8730"/>
        </g>
      </g>
    </g>
  </g>
</svg>
