<svg xmlns="http://www.w3.org/2000/svg" width="305.4" height="382.332" viewBox="0 0 305.4 382.332">
  <g id="Group_25063" data-name="Group 25063" transform="translate(-857.3 -669.15)">
    <g id="Group_25048" data-name="Group 25048" transform="translate(-4421.615 -177.186)">
      <path id="Path_65279" data-name="Path 65279" d="M5584.315,1657.107c0,4.251-30.377,7.7-67.85,7.7s-67.85-3.447-67.85-7.7,30.378-7.7,67.85-7.7S5584.315,1652.856,5584.315,1657.107Z" transform="translate(0 -436.137)" fill="#ddd"/>
      <g id="Group_25047" data-name="Group 25047" transform="translate(5457.691 846.336)">
        <path id="Path_65280" data-name="Path 65280" d="M5498.476,1027.512s-15.84,9.689-29.323,64.063l21.809,5.473S5510.128,1058.969,5498.476,1027.512Z" transform="translate(-5468.845 -944.73)" fill="#b9c4c6"/>
        <g id="Group_25034" data-name="Group 25034" transform="translate(80.86 354.496)">
          <path id="Path_65281" data-name="Path 65281" d="M5645.911,1638.047h25.957s1.525-6.81-3.893-15.865l-17.488.191S5645.456,1629.444,5645.911,1638.047Z" transform="translate(-5645.683 -1622.181)" fill="#8e5931"/>
          <rect id="Rectangle_25614" data-name="Rectangle 25614" width="25.956" height="4.075" transform="translate(0 15.865)" fill="#4f2f19"/>
          <path id="Path_65282" data-name="Path 65282" d="M5672.5,1637.621c0,1.766-4.383,3.2-9.79,3.2s-9.791-1.432-9.791-3.2,4.384-3.2,9.791-3.2S5672.5,1635.855,5672.5,1637.621Z" transform="translate(-5649.507 -1628.83)" fill="#cc9976"/>
        </g>
        <g id="Group_25035" data-name="Group 25035" transform="translate(6.635 350.732)">
          <path id="Path_65283" data-name="Path 65283" d="M5531.844,1616.126s2.012,10.2.493,17.447H5483.46s-1.669-10.491,19.582-10.466l13.632-9.163Z" transform="translate(-5483.232 -1613.943)" fill="#8e5931"/>
          <path id="Path_65284" data-name="Path 65284" d="M5531.724,1660.979H5516.07l-.2-2.759a49.215,49.215,0,0,1-16.3,2.756c-4.506,0-16.572.2-16.572.2V1656.9h48.725Z" transform="translate(-5482.999 -1637.275)" fill="#4f2f19"/>
          <path id="Path_65285" data-name="Path 65285" d="M5502.447,1634.247s-.718,7.487-17.584,7.132C5484.863,1641.379,5487.186,1634.563,5502.447,1634.247Z" transform="translate(-5484.011 -1624.97)" fill="#cc9976"/>
          <path id="Path_65286" data-name="Path 65286" d="M5555.917,1642.192s.473-12.3,16.023-12.377c0,0,.826,8.3-.388,12.377Z" transform="translate(-5522.6 -1622.563)" fill="#724526"/>
        </g>
        <path id="Path_65287" data-name="Path 65287" d="M5535.235,1246.092l-.911,171.94s13.282,6.613,25.8,1.434l4.785-140.519,3.7-.179,18.082,140.7s9.562,4.31,23.679-.865l-14.33-169.34Z" transform="translate(-5504.238 -1063.437)" fill="#b9c4c6"/>
        <path id="Path_65288" data-name="Path 65288" d="M5534.675,1456.06l-.351,64.878s13.282,6.613,25.8,1.434l2.957-86.8C5556.075,1463.3,5540.845,1459.1,5534.675,1456.06Z" transform="translate(-5504.238 -1166.343)" fill="#9da9aa"/>
        <path id="Path_65289" data-name="Path 65289" d="M5654.512,1457.923c-9.38,25.292-21.788,9.062-27.112.017l9.84,76.569s9.562,4.31,23.679-.865Z" transform="translate(-5554.786 -1178.479)" fill="#9da9aa"/>
        <path id="Path_65290" data-name="Path 65290" d="M5610.852,1017.04a88.7,88.7,0,0,0-32.194-1.341c.074,7.583.3,40.325,7.8,66.35C5586.455,1082.05,5607.515,1034.5,5610.852,1017.04Z" transform="translate(-5528.315 -937.82)" fill="#b9e2f4"/>
        <path id="Path_65291" data-name="Path 65291" d="M5586.635,1033.118l4.184,7.344-10.213,44.938,6.925,8.918,7.174-6.475.692-47.048,3.636-5.8-5.175-7.481Z" transform="translate(-5529.373 -944.73)" fill="#48c4ac"/>
        <path id="Path_65292" data-name="Path 65292" d="M5600.974,1024.558a99.712,99.712,0,0,0-23.582-8.579c-3.337,17.458-22.59,66.352-22.59,66.352-7.5-26.025-5.938-59.44-6.013-67.022-5.893.922-16.623,2.848-22.5,5.575,0,0-6.831,7.76-3.187,63.074.486,7.381-2.732,117.542-2.732,118.753,0,0,18.1,5.6,31.875,2.847l3.188-21.109,2.584,21.838c8.447,1.714,30.355,2.612,43.865-3.425,0,0-12.048-122.062-6.565-144.093C5595.32,1058.77,5599.239,1038.405,5600.974,1024.558Z" transform="translate(-5496.662 -938.103)" fill="#dae6e8"/>
        <path id="Path_65293" data-name="Path 65293" d="M5678.5,1099.261l-5.537,5.844s-4.259,25.777,3.4,34.916C5676.371,1140.021,5674.944,1107.333,5678.5,1099.261Z" transform="translate(-5578.892 -983.695)" fill="#b9c4c6"/>
        <path id="Path_65294" data-name="Path 65294" d="M5565.226,1040.011l-3.258,2.943s8.711,34.069,14.971,46.42c0,0,18.07-30.1,23.76-43.249l-2.72-4.291,5.965-1.823s2.391-12.449,1.721-22.467c-1.946-.575-3.986-1.11-6.09-1.566-3.337,17.458-22.59,66.352-22.59,66.352-7.5-26.025-5.938-59.44-6.013-67.022-1.731.271-3.514.44-5.474.932l-4.28,19.9Z" transform="translate(-5518.844 -938.103)" fill="#e9f1f2"/>
        <path id="Path_65295" data-name="Path 65295" d="M5630,1298.139s12.638.6,21.042-1.509c0,0,.74,20.158.019,24.568l-10.373,4.41L5630,1321.2S5631.518,1302.667,5630,1298.139Z" transform="translate(-5556.198 -1090.884)" fill="#e9f1f2"/>
        <path id="Path_65296" data-name="Path 65296" d="M5521.09,1296.671a27.254,27.254,0,0,0,5.649,1.34s-.759,19.772,0,23.092l-6.062,2.113S5519.084,1306.651,5521.09,1296.671Z" transform="translate(-5496.501 -1090.906)" fill="#e9f1f2"/>
        <path id="Path_65297" data-name="Path 65297" d="M5703.838,1292.875a40.894,40.894,0,0,0-6.854-4.456l-4.127,3.3c-2.977,1.4-6.567,12.327-6.567,12.327s-1.555,3.123-.292,3.554a2.416,2.416,0,0,0,2.755-.92l2.763-4.18s.963.037-.333,4a8.388,8.388,0,0,1-1.481,2.793s-1.774.525-2.258,1.581c-.024.054-.046.111-.067.17a1.662,1.662,0,0,0-2.3,1.529l2.145,1.416s4.007.8,5.231.317a7.481,7.481,0,0,0,3.267-1.174,5.263,5.263,0,0,0,2.9-1.758c.938-1.532,1.943-3.237,1.943-3.237l1.585-4.146h0C5703.217,1301,5703.269,1297.124,5703.838,1292.875Z" transform="translate(-5586.111 -1086.417)" fill="#f5bc83"/>
        <path id="Path_65298" data-name="Path 65298" d="M5694.282,1284.139v6.7s4.934,4.881,15.027,1.533l.645-6.206Z" transform="translate(-5591.109 -1084.1)" fill="#f0f2f1"/>
        <path id="Path_65299" data-name="Path 65299" d="M5684.674,1035.551s12.9,9.277,16.848,59.9c0,0,4.856,32.766-1.822,57.314a17.823,17.823,0,0,1-17.3-1.952s-.608-40.958,0-50.605l-8.742-27.383S5675.264,1039.681,5684.674,1035.551Z" transform="translate(-5579.906 -949.096)" fill="#dae6e8"/>
        <g id="Group_25039" data-name="Group 25039" transform="translate(34.458 68.565)">
          <g id="Group_25036" data-name="Group 25036" transform="translate(43.953 57.897)">
            <path id="Path_65300" data-name="Path 65300" d="M5653.047,1130.179a6.493,6.493,0,1,0-7.082,5.811A6.466,6.466,0,0,0,5653.047,1130.179Z" transform="translate(-5640.09 -1123.107)" fill="#b7bcbc"/>
            <path id="Path_65301" data-name="Path 65301" d="M5653.62,1133.4a3.533,3.533,0,1,0-3.854,3.162A3.519,3.519,0,0,0,5653.62,1133.4Z" transform="translate(-5643.609 -1126.605)" fill="#919191"/>
          </g>
          <path id="Path_65302" data-name="Path 65302" d="M5655.141,1126.234l-1.806-.24.481-3.59,1.805.239Z" transform="translate(-5603.33 -1064.829)" fill="#919191"/>
          <g id="Group_25037" data-name="Group 25037" transform="translate(3.514 31.016)">
            <path id="Path_65303" data-name="Path 65303" d="M5564.678,1095.7c-.239-.05-5.89-1.235-8.917-3.255-.653-.436-2.182-1.457-3.378-15.1-.575-6.552-.8-12.948-.8-13.011l1.82-.061c.407,11.989,1.813,25.594,3.373,26.665,2.733,1.825,8.216,2.973,8.272,2.985Z" transform="translate(-5551.584 -1064.277)" fill="#898989"/>
          </g>
          <g id="Group_25038" data-name="Group 25038" transform="translate(1.535 31.583)">
            <path id="Path_65304" data-name="Path 65304" d="M5547.965,1097.475l-.712-1.667c.061-.025,5.924-2.5,7.559-3.376,1.067-1.5,4.466-14.9,7.161-26.914l1.778.394c-.015.067-1.514,6.739-3.182,13.429-3.465,13.9-4.222,14.315-4.775,14.622C5554.227,1094.828,5548.22,1097.367,5547.965,1097.475Z" transform="translate(-5547.253 -1065.517)" fill="#898989"/>
          </g>
          <path id="Path_65305" data-name="Path 65305" d="M5594.917,1003.516a19.016,19.016,0,0,0-13.842-7.052c-7.909-.635-14.327,3.151-18.56,10.947a38.727,38.727,0,0,0-3.8,10.822,6.807,6.807,0,0,0-4.683,1.777c-3.071,2.84-2.987,8.032-2.982,8.252l2.276-.052c-.028-1.213.322-4.754,2.257-6.542a4.86,4.86,0,0,1,3.981-1.144,4.459,4.459,0,0,1,3.51,1.8c1.7,2.49.5,6.744.487,6.785l2.185.634c.063-.216,1.519-5.308-.784-8.686a6.3,6.3,0,0,0-3.97-2.583,36.768,36.768,0,0,1,3.558-10.037c3.824-7.01,9.324-10.278,16.345-9.715a16.579,16.579,0,0,1,12.249,6.21c6.669,8.281,8.258,25.144,4.724,50.122l2.254.315C5603.794,1029.386,5602.093,1012.425,5594.917,1003.516Z" transform="translate(-5547.778 -996.395)" fill="#4f4f4f"/>
          <path id="Path_65306" data-name="Path 65306" d="M5581.8,1129.725a1.291,1.291,0,0,1-1.547.964l-1.034-.235a1.285,1.285,0,0,1-.97-1.539l.136-.587a1.291,1.291,0,0,1,1.547-.964l1.034.235a1.284,1.284,0,0,1,.97,1.539Z" transform="translate(-5562.534 -1067.505)" fill="#b7bcbc"/>
          <path id="Path_65307" data-name="Path 65307" d="M5547.612,1131.475a1.283,1.283,0,0,1-.872,1.6l-1.018.3a1.292,1.292,0,0,1-1.6-.866l-.172-.578a1.283,1.283,0,0,1,.872-1.6l1.018-.3a1.292,1.292,0,0,1,1.6.866Z" transform="translate(-5543.894 -1068.942)" fill="#b7bcbc"/>
        </g>
        <g id="Group_25040" data-name="Group 25040" transform="translate(57.636 58.394)">
          <path id="Path_65308" data-name="Path 65308" d="M5594.62,1002.521v11.008h18.67v-14.38A36.264,36.264,0,0,1,5594.62,1002.521Z" transform="translate(-5594.62 -987.721)" fill="#f5bc83"/>
          <path id="Path_65309" data-name="Path 65309" d="M5613.291,985.565V974.137h-18.67v14.8A36.263,36.263,0,0,0,5613.291,985.565Z" transform="translate(-5594.62 -974.137)" fill="#e48f61"/>
        </g>
        <g id="Group_25041" data-name="Group 25041" transform="translate(38.879)">
          <path id="Path_65310" data-name="Path 65310" d="M5631.081,885.948s16.97,1.151,15.154,20.366a8.935,8.935,0,0,0,1.648-2.38,23.111,23.111,0,0,0,1.221-13.177C5643.836,885.589,5631.081,885.948,5631.081,885.948Z" transform="translate(-5595.664 -867.845)" fill="#562811"/>
          <path id="Path_65311" data-name="Path 65311" d="M5607.008,869.246a32.666,32.666,0,0,0-6.874-14.369c-10.062-12.719-35.04-9.1-42.533-2.84s-2.25,11.6-2.25,11.6a8.052,8.052,0,0,1,3.074,1.164l11.284,8.24,19.274-8.6S5601.741,864.08,5607.008,869.246Z" transform="translate(-5553.569 -846.336)" fill="#6a371a"/>
        </g>
        <path id="Path_65312" data-name="Path 65312" d="M5590.28,885l-19.274,8.6-11.283-8.24a8.055,8.055,0,0,0-3.074-1.164c-.97,3.578-.64,12.987-.64,12.987l42.554,13.281a30.416,30.416,0,0,0,6.872-5.1C5607.251,886.154,5590.28,885,5590.28,885Z" transform="translate(-5515.985 -866.901)" fill="#a5836b"/>
        <g id="Group_25042" data-name="Group 25042" transform="translate(40.023 18.102)">
          <path id="Path_65313" data-name="Path 65313" d="M5598.774,934.323a38.432,38.432,0,0,1,.362-10.123l-.013.033a34.33,34.33,0,0,1-1.712-4.443c-.256-.822-.486-1.648-.691-2.471,1.628,17.348-10.166,20.145-10.166,20.145a49.458,49.458,0,0,1-27.723.029c.845,4.586,2.26,8.784,4.649,11.994a15.663,15.663,0,0,0,2.813,2.926C5573.8,954.484,5591.058,955.077,5598.774,934.323Z" transform="translate(-5557.571 -902.988)" fill="#a5836b"/>
          <path id="Path_65314" data-name="Path 65314" d="M5607.644,954.534c-7.717,20.754-24.979,20.161-32.482,18.09a14.519,14.519,0,0,0,8.082,3.209c21.3,1.666,25.247-11.691,25.669-17.885C5608.354,957.682,5607.833,956.784,5607.644,954.534Z" transform="translate(-5566.44 -923.199)" fill="#91715a"/>
          <path id="Path_65315" data-name="Path 65315" d="M5585.057,920.431s11.793-2.8,10.165-20.145c-4.482-6.153-4.877-14.331-4.877-14.331-18.78,4.489-30.558.364-30.558.364-.319,5.641-3.714,11.823-3.714,11.823.1,7.321-.265,14.036,1.26,22.319A49.46,49.46,0,0,0,5585.057,920.431Z" transform="translate(-5556.073 -885.954)" fill="#f5bc83"/>
          <path id="Path_65316" data-name="Path 65316" d="M5648.337,920.528l-2.126,5.179c-1.543,11.331-.211,13.007.908,13.537a14.352,14.352,0,0,0,.91-2.554s7.251,1.128,8.108-10.674C5656.735,917.8,5648.337,920.528,5648.337,920.528Z" transform="translate(-5604.646 -904.495)" fill="#f5bc83"/>
        </g>
        <path id="Path_65317" data-name="Path 65317" d="M5574.337,930.066c-.011,1.85-.964,3.346-2.125,3.337s-2.1-1.514-2.083-3.365.964-3.346,2.126-3.339S5574.35,928.213,5574.337,930.066Z" transform="translate(-5523.684 -889.98)" fill="#6a371a"/>
        <path id="Path_65318" data-name="Path 65318" d="M5617.7,930.376c-.012,1.873-.977,3.387-2.153,3.379s-2.12-1.534-2.107-3.407.977-3.388,2.152-3.38S5617.712,928.5,5617.7,930.376Z" transform="translate(-5547.205 -890.126)" fill="#6a371a"/>
        <g id="Group_25043" data-name="Group 25043" transform="translate(50.733 55.679)">
          <path id="Path_65319" data-name="Path 65319" d="M5579.541,968.423a89.533,89.533,0,0,0,15.013-.228s-.616,8.631-8.552,7.815C5578.7,975.261,5579.541,968.423,5579.541,968.423Z" transform="translate(-5579.511 -968.195)" fill="#56362e"/>
          <path id="Path_65320" data-name="Path 65320" d="M5580.04,969.248a58.157,58.157,0,0,0,14.416-.218s-1.865,3.327-8.5,3.188S5580.04,969.248,5580.04,969.248Z" transform="translate(-5579.787 -968.648)" fill="#fff"/>
        </g>
        <path id="Path_65321" data-name="Path 65321" d="M5564.618,851.733s8.125,5.958,23.761,5.488a48.373,48.373,0,0,1-33.072,1.6S5557.179,854.352,5564.618,851.733Z" transform="translate(-5515.634 -849.267)" fill="#935c41"/>
        <rect id="Rectangle_25615" data-name="Rectangle 25615" width="9.563" height="2.717" transform="translate(42.769 32.144) rotate(-3.155)" fill="#6a371a"/>
        <path id="Path_65322" data-name="Path 65322" d="M5617.3,918.719l-9.5-1.106.318-2.7,9.5,1.106Z" transform="translate(-5544.141 -883.58)" fill="#6a371a"/>
        <g id="Group_25044" data-name="Group 25044" transform="translate(50.913 37.735)">
          <path id="Path_65323" data-name="Path 65323" d="M5584.585,945.019a5.075,5.075,0,0,1-1.856-.36,4.374,4.374,0,0,1-2.78-3.544,2.55,2.55,0,0,1,.38-1.978,3.362,3.362,0,0,1,2.39-.993c.973-.132,1.581-.24,1.8-.783.653-1.647.475-6.651.352-8.44l.435,1.274c.046.69,1.367,5.435.483,7.665-.52,1.309-1.829,1.486-2.881,1.63-.62.084-1.26.171-1.486.467a1.349,1.349,0,0,0-.114.971,3.287,3.287,0,0,0,1.9,2.583,3.614,3.614,0,0,0,2.555.514l.74-.189C5586,944.23,5585.375,945.019,5584.585,945.019Z" transform="translate(-5579.906 -928.921)" fill="#e48f61"/>
        </g>
        <path id="Path_65324" data-name="Path 65324" d="M5588.038,1007.569s.862,6.474,6.835,9.1c0,0,11.119-1.891,11.9-9.119l4.343,4.213s-2.169,11.576-10.786,14.771l-5.386-8.165-7.32,6.735s-5.691-8.745-5.111-14.011Z" transform="translate(-5530.388 -933.891)" fill="#acd7e5"/>
        <path id="Path_65325" data-name="Path 65325" d="M5572.219,1120.055l1.977,22.934a3.571,3.571,0,0,1,3.263,3.607c.17,3.427-.4,12.03-2.621,13.161l-.041,24.45-50.034.227.271-23.545Z" transform="translate(-5499.046 -994.988)" fill="#b9c4c6"/>
        <g id="Group_25045" data-name="Group 25045" transform="translate(17.492 112.083)">
          <path id="Path_65326" data-name="Path 65326" d="M5513.057,1093.4l1.136-1.761,52.086,2.188-2.6,67.213-2.017,2.421Z" transform="translate(-5510.18 -1091.639)" fill="#3e78a7"/>
          <rect id="Rectangle_25616" data-name="Rectangle 25616" width="67.953" height="51.545" transform="translate(0 69.653) rotate(-87.588)" fill="#6ba1c4"/>
          <path id="Path_65327" data-name="Path 65327" d="M5509.289,1136.3l.953-24.637,25.614-13.911,26.583,1.135-.613,12.195Z" transform="translate(-5508.134 -1094.959)" fill="#b9e2f4"/>
        </g>
        <g id="Group_25046" data-name="Group 25046" transform="translate(0 139.319)">
          <path id="Path_65328" data-name="Path 65328" d="M5584,1164.882l3.61-2.1s5.09-4.665,7.526-4.886c3.124-.284,7.383-2.645,7.383-2.645s2.387,3.135-2.876,5.092c0,0,6.333-.1,6.722,1.761a3.657,3.657,0,0,1-.342,2.184,2.454,2.454,0,0,1,.177,3.683s1.238,2.117-.434,3.311c0,0,1.195,1.3-.7,2.5-1.949,1.233-2.124,1.327-6.141,2.358,0,0-8.383.5-11.645-2.541Z" transform="translate(-5531.217 -1153.422)" fill="#f5bc83"/>
          <path id="Path_65329" data-name="Path 65329" d="M5577.99,1165.337l7.317,1.123s4,8.165-1.011,14.274l-6.868-.288Z" transform="translate(-5527.647 -1158.9)" fill="#b9e2f4"/>
          <path id="Path_65330" data-name="Path 65330" d="M5468.486,1162.352s1.935,15.5,51.633,12.536c0,0,3.677-11.105.545-17.942C5520.665,1156.945,5467.779,1141.054,5468.486,1162.352Z" transform="translate(-5468.479 -1151.248)" fill="#dae6e8"/>
        </g>
      </g>
    </g>
    <g id="Capa_2" data-name="Capa 2" transform="translate(857.3 803.739)">
      <g id="Capa_1-2" data-name="Capa 1-2">
        <path id="Path_65331" data-name="Path 65331" d="M112.013,58.841c0-.87-.336-1.164-1.387-1.164h-.336V57.32h.626c.471,0,2.257.067,2.572.067s1.366-.042,2.059-.067h.626v.357h-.357c-1.03,0-1.366.29-1.366,1.164V68.989c0,.874.336,1.164,1.387,1.164h.336v.357h-.626c-.382,0-1.992-.067-2.572-.067-.693,0-1.387.046-2.08.067h-.605v-.357h.336c1.051,0,1.387-.29,1.387-1.164Z" transform="translate(-63.945 -33.234)"/>
        <path id="Path_65332" data-name="Path 65332" d="M130.681,64.657a2.269,2.269,0,0,0-1.361-.807H129v-.286h.269c.126,0,1.593.055,1.735.055.235,0,.912-.055,1.055-.055h.3l6.816,7.421V65.136c0-.929-.42-1.29-1.45-1.29H137.4V63.56h.324l1.681.055c.176,0,1.2-.055,1.4-.055h.2v.286c-.95.071-1.2.319-1.2,1.147V74.25h-.324L131.4,65.388V72.04c0,1.4.324,1.769,1.5,1.769h.3v.3h-.34c-.252,0-1.483-.055-1.769-.055-.16,0-1.307.055-1.555.055h-.286V73.83c1.2-.105,1.45-.3,1.45-1.164Z" transform="translate(-74.793 -36.851)"/>
        <path id="Path_65333" data-name="Path 65333" d="M162.154,71.382a2.782,2.782,0,0,0,1.021,1.378,3.783,3.783,0,0,0,2.307.7c1.538,0,2.576-.8,2.576-1.967,0-.84-.5-1.324-2.362-2.2a8.105,8.105,0,0,1-2.609-1.643,2.492,2.492,0,0,1-.786-1.841c0-1.647,1.34-2.736,3.362-2.736a8.208,8.208,0,0,1,1.983.269,3.476,3.476,0,0,0,.735.105.248.248,0,0,0,.269-.143h.307l.034,2.252h-.248a2.5,2.5,0,0,0-2.79-1.983c-1.286,0-2.126.609-2.126,1.521,0,.786.483,1.235,2.2,2.021,2.2,1.017,3.521,1.929,3.521,3.614,0,1.933-1.572,3.236-3.916,3.236a8.47,8.47,0,0,1-1.9-.231,3.9,3.9,0,0,0-.643-.088.458.458,0,0,0-.42.2h-.307l-.038-.252c-.143-.84-.3-1.593-.42-2.1Z" transform="translate(-93.874 -36.567)"/>
        <path id="Path_65334" data-name="Path 65334" d="M188.092,64.05h-2.164c-1.261,0-1.593.3-1.681,1.572h-.307l.055-2.521h.286a1.426,1.426,0,0,0,.42.2,1.873,1.873,0,0,0,.483.055H193a1.29,1.29,0,0,0,.9-.248h.286l.055,2.521h-.3c-.109-1.261-.42-1.572-1.681-1.572h-2.164v8.56c0,.592.181.929,1.126.929h.269v.3h-.517c-.286,0-1.735-.055-2.059-.055-.231,0-1.109.055-1.681.055H186.7v-.282h.319c.8,0,1.072-.231,1.072-.929Z" transform="translate(-106.647 -36.585)"/>
        <path id="Path_65335" data-name="Path 65335" d="M213.775,64.784c0-.7-.269-.929-1.109-.929H212.4V63.57h.5c.374,0,1.807.055,2.059.055s1.093-.038,1.647-.055h.5v.286h-.286c-.84,0-1.093.231-1.093.929V72.9c0,.7.269.929,1.109.929h.269v.286h-.5c-.3,0-1.593-.055-2.059-.055-.555,0-1.109.038-1.681.055h-.483v-.282h.269c.84,0,1.109-.235,1.109-.929Z" transform="translate(-123.136 -36.857)"/>
        <path id="Path_65336" data-name="Path 65336" d="M231.847,64.05h-2.164c-1.261,0-1.593.3-1.681,1.572h-.3l.055-2.521h.286a1.4,1.4,0,0,0,.42.2,1.873,1.873,0,0,0,.483.055h7.816a1.294,1.294,0,0,0,.9-.248h.256l.055,2.521h-.307c-.105-1.261-.42-1.572-1.681-1.572h-2.164v8.56c0,.592.181.929,1.126.929h.269v.3h-.517c-.286,0-1.731-.055-2.055-.055-.231,0-1.109.055-1.681.055h-.5v-.282h.311c.807,0,1.072-.231,1.072-.929Z" transform="translate(-132.018 -36.585)"/>
        <path id="Path_65337" data-name="Path 65337" d="M257.378,64.784c0-.714-.269-.929-1.109-.929H256V63.57h.5c.3,0,1.735.055,2.059.055.42,0,1.324-.055,1.681-.055h.5v.286h-.286c-.84,0-1.109.231-1.109.929V70.76c0,2.072.95,3,3.042,3,2,0,3.131-1.021,3.131-2.862V65.011c0-.929-.214-1.147-1.126-1.147h-.3v-.286h.315l1.735.055c.466,0,.966-.055,1.378-.055h.42v.286h-.357c-.807,0-1.109.231-1.109.878v5.677c0,3.076-2.1,3.845-4.622,3.845-1.143,0-4.488-.248-4.488-3.559Z" transform="translate(-148.426 -36.857)"/>
        <path id="Path_65338" data-name="Path 65338" d="M292.419,64.05h-2.156c-1.261,0-1.593.3-1.681,1.572h-.3l.055-2.521h.248a1.425,1.425,0,0,0,.42.2,1.873,1.873,0,0,0,.483.055H297.3a1.294,1.294,0,0,0,.9-.248h.286l.055,2.521h-.29c-.109-1.261-.42-1.572-1.681-1.572H294.4v8.56c0,.592.176.929,1.126.929h.269v.3h-.517c-.286,0-1.735-.055-2.059-.055-.231,0-1.109.055-1.681.055h-.5v-.282h.319c.8,0,1.072-.231,1.072-.929Z" transform="translate(-167.142 -36.585)"/>
        <path id="Path_65339" data-name="Path 65339" d="M328.6,68.5a5.582,5.582,0,1,1-5.635-5.438A5.284,5.284,0,0,1,328.6,68.5Zm-8.261-3.5a8.283,8.283,0,0,0-.7,3.685c0,1.576.374,4.795,3.5,4.795a2.791,2.791,0,0,0,2.576-1.378,8.435,8.435,0,0,0,.681-3.614c0-3.093-1.261-4.883-3.45-4.883a2.774,2.774,0,0,0-2.605,1.391Z" transform="translate(-184.049 -36.562)"/>
        <path id="Path_65340" data-name="Path 65340" d="M112.021,103.121a2.878,2.878,0,0,0-1.681-1h-.42v-.357h.336c.155,0,1.992.067,2.168.067.29,0,1.139-.067,1.319-.067h.357l8.518,9.278v-7.312c0-1.164-.517-1.609-1.811-1.609h-.382v-.357h.42c.046,0,1.967.067,2.126.067.223,0,1.5-.067,1.744-.067h.248l.021.357c-1.185.088-1.5.42-1.5,1.429v11.56h-.42L112.9,104.042v8.324c0,1.744.42,2.215,1.878,2.215h.382v.382h-.42c-.315,0-1.857-.067-2.215-.067-.2,0-1.635.067-1.946.067h-.357v-.382c1.5-.134,1.811-.378,1.811-1.454Z" transform="translate(-63.731 -58.999)"/>
        <path id="Path_65341" data-name="Path 65341" d="M155.016,107.59h.609l3.471,8.618c.731,1.8,1.235,1.8,1.841,1.8v.307h-.466c-.286,0-1.681-.055-1.967-.055-.5,0-.84.055-1.483.055h-.555v-.307c.462,0,.929,0,.929-.609a2.688,2.688,0,0,0-.248-1l-.807-1.95h-3.362l-.7,1.79a3.149,3.149,0,0,0-.231,1.038c0,.731.7.731,1.093.731v.307h-.374c-.214,0-1.214-.055-1.521-.055-.374,0-.752.055-1.126.055h-.42v-.307c1.126,0,1.34-.269,2.181-2.4Zm-.374,2.61-1.412,3.614h2.845Z" transform="translate(-86.795 -62.38)"/>
        <path id="Path_65342" data-name="Path 65342" d="M190.021,116.143a17.694,17.694,0,0,0-.643,2.1,21.86,21.86,0,0,1-2.9.181,11.471,11.471,0,0,1-3.752-.6,4.807,4.807,0,0,1-3.093-4.7,5.345,5.345,0,0,1,2.038-4.311,6.325,6.325,0,0,1,4.257-1.261c.214,0,.84.038,1.5.055s1.307.071,1.538.071h.786v2.307h-.307a1.42,1.42,0,0,0-.643-1.286,4.78,4.78,0,0,0-2.521-.521c-2.988,0-4.437,1.538-4.437,4.706s1.769,5.043,4.669,5.043a4.068,4.068,0,0,0,2.219-.538,2.239,2.239,0,0,0,1-1.261Z" transform="translate(-104.147 -62.356)"/>
        <path id="Path_65343" data-name="Path 65343" d="M210.519,109.223c0-.7-.269-.929-1.109-.929h-.269V108h.5c.374,0,1.807.055,2.055.055s1.093-.034,1.647-.055h.5v.286h-.286c-.84,0-1.093.231-1.093.929v8.118c0,.7.269.929,1.109.929h.269v.286h-.5c-.3,0-1.593-.055-2.059-.055-.555,0-1.109.038-1.681.055h-.483v-.286h.269c.84,0,1.109-.231,1.109-.929Z" transform="translate(-121.246 -62.617)"/>
        <path id="Path_65344" data-name="Path 65344" d="M236.507,112.938a5.58,5.58,0,1,1-5.631-5.438A5.282,5.282,0,0,1,236.507,112.938Zm-8.261-3.5a8.27,8.27,0,0,0-.7,3.685c0,1.572.374,4.79,3.5,4.79a2.791,2.791,0,0,0,2.576-1.378,8.436,8.436,0,0,0,.681-3.614c0-3.093-1.261-4.883-3.45-4.883a2.774,2.774,0,0,0-2.614,1.4Z" transform="translate(-130.656 -62.327)"/>
        <path id="Path_65345" data-name="Path 65345" d="M258.265,109.1a2.277,2.277,0,0,0-1.361-.807h-.324V108h.269c.126,0,1.593.055,1.735.055.231,0,.912-.055,1.055-.055h.286l6.812,7.421V109.58c0-.929-.42-1.29-1.45-1.29h-.3V108h.319l1.681.055c.181,0,1.2-.055,1.4-.055h.2v.286c-.95.071-1.2.324-1.2,1.147v9.245h-.319l-8.139-8.85v6.652c0,1.4.319,1.769,1.5,1.769h.3v.307h-.34c-.248,0-1.483-.055-1.769-.055-.16,0-1.307.055-1.555.055h-.286v-.307c1.2-.105,1.45-.3,1.45-1.16Z" transform="translate(-148.763 -62.617)"/>
        <path id="Path_65346" data-name="Path 65346" d="M292.954,107.59h.609l3.467,8.618c.735,1.8,1.235,1.8,1.841,1.8v.307H298.4c-.286,0-1.681-.055-1.967-.055-.5,0-.84.055-1.483.055H294.4v-.307c.462,0,.929,0,.929-.609a2.673,2.673,0,0,0-.252-1l-.8-1.95h-3.362l-.7,1.79a3.147,3.147,0,0,0-.231,1.038c0,.731.7.731,1.093.731v.307H290.7c-.214,0-1.214-.055-1.521-.055-.374,0-.752.055-1.126.055h-.42v-.307c1.126,0,1.34-.269,2.181-2.4Zm-.374,2.61-1.433,3.614h2.845Z" transform="translate(-166.765 -62.38)"/>
        <path id="Path_65347" data-name="Path 65347" d="M320.058,109.223c0-.7-.269-.929-1.109-.929h-.269V108h.5c.3,0,1.807.055,2.055.055s1.109-.055,1.681-.055h.5v.286h-.269c-.84,0-1.109.231-1.109.929v7.946c0,.609.286.769,1.357.769,1.681,0,2.29-.324,3.042-1.626h.307l-.8,2.257h-.34c-.357,0-2.631-.055-4.08-.055-.84,0-2.164.055-2.45.055h-.42v-.286h.269c.84,0,1.109-.231,1.109-.912Z" transform="translate(-184.75 -62.617)"/>
        <path id="Path_65348" data-name="Path 65348" d="M352.543,108.953c0-.7-.252-.912-1.093-.912h-.34v-.324c.177,0,1.214-.088,2.345-.16.752-.055,1.572-.088,2.055-.088,3,0,4.74.517,6.047,1.807a4.4,4.4,0,0,1,1.231,3.181,5.828,5.828,0,0,1-1.643,4.114,6.685,6.685,0,0,1-5.08,1.681c-.4,0-1.433-.055-2.147-.055-.319,0-1.983.055-2.362.055h-.42v-.307h.324c.84,0,1.093-.214,1.093-.912Zm1.967,7.816c0,.769.286.929,1.626.929,3.147,0,4.488-1.4,4.488-4.652C360.624,108,357.031,108,356,108c-.592,0-.807.038-1.5.088Z" transform="translate(-203.57 -62.31)"/>
        <path id="Path_65349" data-name="Path 65349" d="M384.877,109.2c0-.7-.269-.912-1.109-.912H383.5V108h.7c.483,0,3.093.055,3.114.055.374,0,2.862-.055,3.4-.055h.714l.038,2.307h-.286c-.055-1.2-.593-1.681-1.841-1.681H386.81v4.059h2.164a1.286,1.286,0,0,0,1.422-1.134c0-.034.006-.068.007-.1h.319v3.2h-.294c-.143-1-.66-1.4-1.912-1.4H386.8v3.7a.807.807,0,0,0,.912.912h1.79a2.563,2.563,0,0,0,2.521-1.593h.324l-.752,2.257c-.517,0-2.988-.055-3.807-.055-.555,0-3.219.038-3.828.055h-.466v-.307h.286c.84,0,1.109-.231,1.109-.929Z" transform="translate(-222.344 -62.617)"/>
        <path id="Path_65350" data-name="Path 65350" d="M110.946,155.972a3.455,3.455,0,0,0,1.261,1.723,4.7,4.7,0,0,0,2.883.874c1.925,0,3.219-1.008,3.219-2.458,0-1.072-.626-1.656-2.941-2.748A10.554,10.554,0,0,1,112.1,151.3a3.118,3.118,0,0,1-.983-2.3c0-2.055,1.681-3.421,4.2-3.421a10.259,10.259,0,0,1,2.483.336,4.326,4.326,0,0,0,.916.134.315.315,0,0,0,.336-.181h.382l.046,2.815h-.307a3.122,3.122,0,0,0-3.488-2.483c-1.609,0-2.66.761-2.66,1.9,0,.983.605,1.542,2.748,2.521,2.748,1.261,4.4,2.416,4.4,4.517,0,2.416-1.967,4.047-4.9,4.047a10.571,10.571,0,0,1-2.37-.29,4.838,4.838,0,0,0-.807-.113.571.571,0,0,0-.538.248h-.378l-.046-.311c-.181-1.03-.382-1.992-.538-2.639Z" transform="translate(-64.131 -84.406)"/>
        <path id="Path_65351" data-name="Path 65351" d="M142.824,152h.609l3.471,8.618c.735,1.807,1.235,1.807,1.845,1.807v.3h-.466c-.286,0-1.681-.055-1.967-.055-.5,0-.84.055-1.483.055h-.555v-.3c.466,0,.929,0,.929-.609a2.682,2.682,0,0,0-.252-1l-.807-1.95h-3.362l-.7,1.786a3.142,3.142,0,0,0-.235,1.038c0,.731.7.731,1.093.731v.3h-.378c-.214,0-1.214-.055-1.521-.055-.374,0-.752.055-1.126.055h-.42v-.3c1.126,0,1.34-.269,2.181-2.4Zm-.374,2.61-1.412,3.614h2.845Z" transform="translate(-79.721 -88.128)"/>
        <path id="Path_65352" data-name="Path 65352" d="M169.938,153.674c0-.7-.269-.929-1.109-.929h-.269v-.286h.5c.307,0,1.807.055,2.059.055s1.109-.055,1.681-.055h.5v.286h-.269c-.84,0-1.109.231-1.109.929v7.942c0,.609.286.769,1.357.769,1.681,0,2.29-.319,3.038-1.626h.3l-.752,2.252h-.34c-.357,0-2.626-.055-4.076-.055-.84,0-2.164.055-2.45.055h-.42v-.286h.269c.84,0,1.109-.231,1.109-.912Z" transform="translate(-97.729 -88.395)"/>
        <path id="Path_65353" data-name="Path 65353" d="M191.938,153.674c0-.714-.269-.929-1.109-.929h-.269v-.286h.5c.3,0,1.735.055,2.059.055.42,0,1.324-.055,1.681-.055h.5v.286h-.286c-.84,0-1.109.231-1.109.929v5.971c0,2.076.95,3,3.038,3,2,0,3.131-1.021,3.131-2.862v-5.883c0-.929-.214-1.143-1.126-1.143h-.3v-.286H199l1.735.055c.462,0,.966-.055,1.374-.055h.42v.286h-.357c-.807,0-1.109.231-1.109.874v5.685c0,3.076-2.1,3.845-4.622,3.845-1.143,0-4.488-.252-4.488-3.559Z" transform="translate(-110.485 -88.395)"/>
        <path id="Path_65354" data-name="Path 65354" d="M224.123,153.433c0-.7-.248-.912-1.093-.912h-.34V152.2c.181,0,1.214-.088,2.345-.16.752-.055,1.576-.088,2.059-.088,3,0,4.74.517,6.043,1.807a4.394,4.394,0,0,1,1.235,3.181,5.824,5.824,0,0,1-1.643,4.114,6.68,6.68,0,0,1-5.08,1.681c-.4,0-1.429-.055-2.147-.055-.319,0-1.983.055-2.362.055h-.42v-.3h.319c.84,0,1.093-.214,1.093-.912Zm1.967,7.816c0,.769.286.929,1.626.929,3.147,0,4.488-1.4,4.488-4.648,0-5.043-3.6-5.043-4.622-5.043-.588,0-.8.034-1.5.088Z" transform="translate(-129.114 -88.099)"/>
        <path id="Path_65355" data-name="Path 65355" d="M0,20.8c9.245-6.185,24.931-4.979,33.054.647V0H0Z"/>
        <path id="Path_65356" data-name="Path 65356" d="M.84,70.849c0,10.963,23.347,9.035,32.356,14.972V72.706c0-3.95-7.333-12.476-18.069-12.476C5.756,60.234.84,65.205.84,70.849Z" transform="translate(-0.487 -34.921)"/>
        <path id="Path_65357" data-name="Path 65357" d="M0,198.45v15.779H33.054V198.681C18.611,206.837,5.215,201.488,0,198.45Z" transform="translate(0 -115.059)"/>
        <path id="Path_65358" data-name="Path 65358" d="M16.283,126.695C9.774,125.4,3.034,123.3,0,120.61v18.01c0,4.988,6.673,10.131,17.691,10.131,4.769,0,14.88-1.109,14.88-9.74C32.57,130.275,21.061,127.649,16.283,126.695Z" transform="translate(0 -69.929)"/>
        <circle id="Ellipse_1767" data-name="Ellipse 1767" cx="5.232" cy="5.232" r="5.232" transform="translate(11.295 30.696)" fill="#e0081a"/>
      </g>
    </g>
  </g>
</svg>
