<svg xmlns="http://www.w3.org/2000/svg" xmlns:xlink="http://www.w3.org/1999/xlink" width="1119" height="785" viewBox="0 0 1119 785">
  <defs>
    <linearGradient id="linear-gradient" x1="0.042" y1="1" x2="0.963" y2="1" gradientUnits="objectBoundingBox">
      <stop offset="0" stop-color="#f4efe2"/>
      <stop offset="0.697" stop-color="#fff"/>
      <stop offset="1" stop-color="#f4efe2"/>
    </linearGradient>
  </defs>
  <g id="Group_25060" data-name="Group 25060" transform="translate(-141 -1077)">
    <rect id="Rectangle_3865" data-name="Rectangle 3865" width="1119" height="785" transform="translate(141 1077)" fill="url(#linear-gradient)"/>
    <g id="Group_25027" data-name="Group 25027" transform="translate(0 14)">
      <g id="Group_25026" data-name="Group 25026" transform="translate(-43)">
        <text id="Entidades_Territoriales_de_Salud_ETS_." data-name="Entidades Territoriales de Salud (ETS)." transform="translate(717 1123.5)" fill="#00223d" font-size="16" font-family="SegoeUI, Segoe UI"><tspan x="1.445" y="17">Entidades Territoriales de Salud </tspan><tspan x="92.605" y="37">(ETS).</tspan></text>
        <text id="Instituciones_Prestadoras_de_Servicios_de_Salud_IPS_." data-name="Instituciones Prestadoras de Servicios de Salud (IPS)." transform="translate(717 1420.5)" fill="#00223d" font-size="16" font-family="SegoeUI, Segoe UI"><tspan x="12.594" y="17">Instituciones Prestadoras de </tspan><tspan x="28.414" y="37">Servicios de Salud (IPS).</tspan></text>
        <text id="Organizaciones_no_gubernamentales_de_carácter_humanitario_o_altruista_que_apoyan_la_prestación_de_servicios_de_salud." data-name="Organizaciones no gubernamentales de carácter humanitario o altruista que apoyan la prestación de servicios de salud." transform="translate(711 1716.5)" fill="#00223d" font-size="16" font-family="SegoeUI, Segoe UI"><tspan x="17.742" y="17">Organizaciones no gubernamentales de </tspan><tspan x="4.207" y="37">carácter humanitario o altruista que apoyan </tspan><tspan x="36.336" y="57">la prestación de servicios de salud.</tspan></text>
        <text id="Entidades_Administradoras_de_Planes_de_Beneficio_EAPB_." data-name="Entidades Administradoras de Planes de Beneficio (EAPB)." transform="translate(464 1274.5)" fill="#00223d" font-size="16" font-family="SegoeUI, Segoe UI"><tspan x="6.164" y="17">Entidades Administradoras de </tspan><tspan x="16.359" y="37">Planes de Beneficio (EAPB).</tspan></text>
        <text id="Organismos_internacionales_de_cooperación." data-name="Organismos internacionales de cooperación." transform="translate(464 1572.5)" fill="#00223d" font-size="16" font-family="SegoeUI, Segoe UI"><tspan x="2.625" y="17">Organismos internacionales de </tspan><tspan x="66.109" y="37">cooperación.</tspan></text>
        <g id="Group_25025" data-name="Group 25025" transform="translate(294.835 820.026)">
          <path id="Path_65139" data-name="Path 65139" d="M408.5,341.845a1.228,1.228,0,0,1,2.456,0,46.62,46.62,0,0,1-46.485,46.484v-.005H194.677v.005c-38.7,0-59.007,47.215-31.094,75.126a43.888,43.888,0,0,0,31.094,12.935H449.6c38.7,0,59.005-47.216,31.094-75.126s-75.127-7.6-75.127,31.094v31.751a1.227,1.227,0,0,1-2.454,0V432.358c0-40.881,49.864-62.284,79.318-32.831s8.053,79.317-32.831,79.317H194.677c-40.883,0-62.284-49.864-32.831-79.317a46.345,46.345,0,0,1,32.831-13.654v.005l169.794,0a44.169,44.169,0,0,0,44.03-44.031Z" transform="translate(0 44.162)" fill="#707173"/>
          <path id="Path_65140" data-name="Path 65140" d="M331.358,428.29a1.227,1.227,0,0,1,2.454,0,44.167,44.167,0,0,0,44.031,44.031v.005H547.638v-.005c40.886,0,62.284,49.864,32.831,79.317a46.346,46.346,0,0,1-32.831,13.654H292.715c-40.884,0-62.28-49.866-32.831-79.317s79.319-8.051,79.319,32.831v31.314a1.228,1.228,0,0,1-2.456,0V518.806c0-38.7-47.213-59.009-75.126-31.1s-7.608,75.126,31.094,75.126H547.638c38.7,0,59.007-47.213,31.1-75.126a43.889,43.889,0,0,0-31.1-12.935v-.005H377.844v.005a46.62,46.62,0,0,1-46.485-46.485Z" transform="translate(71.753 107.43)" fill="#707173"/>
          <path id="Path_65141" data-name="Path 65141" d="M408.5,514.738a1.228,1.228,0,0,1,2.456,0,46.62,46.62,0,0,1-46.485,46.484v-.005H194.677v.005c-38.7,0-59.007,47.215-31.094,75.126a43.889,43.889,0,0,0,31.094,12.935H449.6c38.7,0,59.005-47.216,31.094-75.126s-75.127-7.606-75.127,31.094V637a1.227,1.227,0,0,1-2.454,0V605.252c0-40.881,49.864-62.284,79.318-32.831s8.053,79.317-32.831,79.317H194.677c-40.883,0-62.284-49.864-32.831-79.317a46.346,46.346,0,0,1,32.831-13.654v.005H364.47v0a44.166,44.166,0,0,0,44.03-44.03Z" transform="translate(0 170.699)" fill="#707173"/>
          <path id="Path_65142" data-name="Path 65142" d="M334.561,282.769a1.222,1.222,0,0,1,0-2.444H547.638v-.005c40.885,0,62.285,49.863,32.831,79.317a46.346,46.346,0,0,1-32.831,13.654H292.715c-40.884,0-62.28-49.866-32.831-79.317s79.319-8.052,79.319,32.831V358.12a1.228,1.228,0,0,1-2.456,0V326.806c0-38.7-47.213-59.009-75.126-31.1s-7.608,75.126,31.094,75.126H547.638c38.7,0,59.007-47.215,31.1-75.126a43.892,43.892,0,0,0-31.1-12.935v-.005Z" transform="translate(71.753 0)" fill="#707173"/>
          <g id="Group_25015" data-name="Group 25015" transform="translate(325.434 299.851)">
            <path id="Path_65143" data-name="Path 65143" d="M284.436,291.586A33.92,33.92,0,0,1,318.354,325.5v30.471c0,2.158-1,3.447-2.754,3.447H284.438a33.916,33.916,0,1,1,0-67.833Z" transform="translate(-250.521 -291.586)" fill="#f9fafa" fill-rule="evenodd"/>
            <path id="Path_65144" data-name="Path 65144" d="M284.317,291.749a33.639,33.639,0,0,1,33.637,33.633V355.6c0,2.141-.989,3.419-2.731,3.419h-30.9a33.635,33.635,0,0,1,0-67.27Z" transform="translate(-250.402 -291.467)" fill="#f6f6f6" fill-rule="evenodd"/>
            <path id="Path_65145" data-name="Path 65145" d="M284.2,291.911a33.356,33.356,0,0,1,33.354,33.353V355.23c0,2.122-.979,3.389-2.709,3.389H284.2a33.354,33.354,0,0,1,0-66.709Z" transform="translate(-250.283 -291.348)" fill="#f3f3f3" fill-rule="evenodd"/>
            <path id="Path_65146" data-name="Path 65146" d="M284.08,292.073a33.077,33.077,0,0,1,33.074,33.072v29.714c0,2.1-.972,3.362-2.686,3.362H284.082a33.074,33.074,0,0,1,0-66.147Z" transform="translate(-250.165 -291.23)" fill="#efeff0" fill-rule="evenodd"/>
            <path id="Path_65147" data-name="Path 65147" d="M283.961,292.236a32.8,32.8,0,0,1,32.793,32.79v29.461c0,2.085-.965,3.332-2.664,3.332H283.962a32.791,32.791,0,0,1,0-65.583Z" transform="translate(-250.045 -291.11)" fill="#ececec" fill-rule="evenodd"/>
            <path id="Path_65148" data-name="Path 65148" d="M283.842,292.4a32.513,32.513,0,0,1,32.511,32.509v29.208c0,2.068-.954,3.3-2.639,3.3h-29.87a32.511,32.511,0,0,1,0-65.022Z" transform="translate(-249.927 -290.992)" fill="#e8e9e9" fill-rule="evenodd"/>
            <path id="Path_65149" data-name="Path 65149" d="M283.723,292.561a32.232,32.232,0,0,1,32.23,32.227v28.955c0,2.051-.947,3.275-2.617,3.275H283.725a32.229,32.229,0,0,1,0-64.457Z" transform="translate(-249.807 -290.872)" fill="#e5e5e6" fill-rule="evenodd"/>
            <path id="Path_65150" data-name="Path 65150" d="M283.6,292.723a31.951,31.951,0,0,1,31.95,31.946v28.7c0,2.033-.939,3.247-2.594,3.247H283.606a31.948,31.948,0,0,1,0-63.9Z" transform="translate(-249.689 -290.754)" fill="#e1e2e3" fill-rule="evenodd"/>
            <path id="Path_65151" data-name="Path 65151" d="M283.486,292.885a31.671,31.671,0,0,1,31.669,31.666V353c0,2.014-.932,3.218-2.572,3.218h-29.1a31.667,31.667,0,0,1,0-63.335Z" transform="translate(-249.57 -290.635)" fill="#dedfdf" fill-rule="evenodd"/>
            <path id="Path_65152" data-name="Path 65152" d="M283.367,293.047a31.39,31.39,0,0,1,31.387,31.385v28.2c0,2-.921,3.19-2.549,3.19H283.369a31.387,31.387,0,0,1,0-62.774Z" transform="translate(-249.452 -290.517)" fill="#dadbdc" fill-rule="evenodd"/>
            <path id="Path_65153" data-name="Path 65153" d="M283.248,293.21a31.108,31.108,0,0,1,31.106,31.1v27.946c0,1.978-.914,3.161-2.527,3.161H283.25a31.1,31.1,0,0,1,0-62.209Z" transform="translate(-249.332 -290.397)" fill="#d7d8d9" fill-rule="evenodd"/>
            <path id="Path_65154" data-name="Path 65154" d="M283.129,293.372a30.826,30.826,0,0,1,30.824,30.822v27.693c0,1.96-.906,3.133-2.5,3.133h-28.32a30.824,30.824,0,0,1,0-61.648Z" transform="translate(-249.214 -290.279)" fill="#d4d4d5" fill-rule="evenodd"/>
            <path id="Path_65155" data-name="Path 65155" d="M283.01,293.535a30.545,30.545,0,0,1,30.543,30.54v27.44c0,1.943-.9,3.1-2.48,3.1H283.012a30.542,30.542,0,0,1,0-61.083Z" transform="translate(-249.095 -290.16)" fill="#d0d1d2" fill-rule="evenodd"/>
            <path id="Path_65156" data-name="Path 65156" d="M282.891,293.7a30.266,30.266,0,0,1,30.263,30.259v27.187c0,1.926-.89,3.076-2.458,3.076h-27.8a30.261,30.261,0,0,1,0-60.522Z" transform="translate(-248.976 -290.041)" fill="#cdcecf" fill-rule="evenodd"/>
            <path id="Path_65157" data-name="Path 65157" d="M282.773,293.859a29.983,29.983,0,0,1,29.981,29.979v26.936c0,1.905-.88,3.045-2.433,3.045H282.775a29.98,29.98,0,1,1,0-59.959Z" transform="translate(-248.857 -289.922)" fill="#c9cacb" fill-rule="evenodd"/>
            <path id="Path_65158" data-name="Path 65158" d="M282.654,294.022a29.7,29.7,0,0,1,29.7,29.7V350.4c0,1.888-.873,3.017-2.411,3.017H282.656a29.7,29.7,0,1,1,0-59.4Z" transform="translate(-248.739 -289.803)" fill="#c6c7c8" fill-rule="evenodd"/>
            <path id="Path_65159" data-name="Path 65159" d="M282.535,294.184A29.422,29.422,0,0,1,311.955,323.6v26.43c0,1.871-.864,2.989-2.39,2.989H282.537a29.418,29.418,0,0,1,0-58.836Z" transform="translate(-248.62 -289.685)" fill="#c2c3c5" fill-rule="evenodd"/>
            <path id="Path_65160" data-name="Path 65160" d="M282.416,294.346a29.142,29.142,0,0,1,29.139,29.135v26.177c0,1.853-.857,2.961-2.367,2.961h-26.77a29.137,29.137,0,0,1,0-58.274Z" transform="translate(-248.501 -289.566)" fill="#bfc0c2" fill-rule="evenodd"/>
            <path id="Path_65161" data-name="Path 65161" d="M282.3,294.509a28.858,28.858,0,0,1,28.857,28.853v25.924c0,1.836-.849,2.932-2.343,2.932H282.3a28.855,28.855,0,0,1,0-57.71Z" transform="translate(-248.382 -289.447)" fill="#bcbdbe" fill-rule="evenodd"/>
            <path id="Path_65162" data-name="Path 65162" d="M282.179,294.671a28.579,28.579,0,0,1,28.576,28.573v25.672c0,1.818-.84,2.9-2.321,2.9H282.18a28.574,28.574,0,0,1,0-57.149Z" transform="translate(-248.263 -289.328)" fill="#b8b9bb" fill-rule="evenodd"/>
            <path id="Path_65163" data-name="Path 65163" d="M282.059,294.834a28.294,28.294,0,0,1,28.294,28.29v25.421c0,1.8-.831,2.873-2.3,2.873h-26a28.292,28.292,0,0,1,0-56.584Z" transform="translate(-248.144 -289.209)" fill="#b5b6b8" fill-rule="evenodd"/>
            <path id="Path_65164" data-name="Path 65164" d="M281.941,295a28.015,28.015,0,0,1,28.013,28.01v25.168c0,1.78-.823,2.846-2.274,2.846H281.942a28.011,28.011,0,0,1,0-56.023Z" transform="translate(-248.025 -289.09)" fill="#b1b3b4" fill-rule="evenodd"/>
          </g>
          <g id="Group_25016" data-name="Group 25016" transform="translate(411.456 449.078)">
            <path id="Path_65165" data-name="Path 65165" d="M334.106,377.751a33.921,33.921,0,0,0-33.915,33.915v30.471c0,2.158,1,3.446,2.754,3.446h31.162a33.916,33.916,0,0,0,0-67.833Z" transform="translate(-300.191 -377.751)" fill="#f9fafa" fill-rule="evenodd"/>
            <path id="Path_65166" data-name="Path 65166" d="M333.988,377.914a33.64,33.64,0,0,0-33.635,33.633v30.218c0,2.141.989,3.419,2.733,3.419h30.9a33.635,33.635,0,1,0,0-67.27Z" transform="translate(-300.072 -377.632)" fill="#f6f6f6" fill-rule="evenodd"/>
            <path id="Path_65167" data-name="Path 65167" d="M333.869,378.076a33.358,33.358,0,0,0-33.353,33.353V441.4c0,2.122.98,3.389,2.709,3.389h30.644a33.354,33.354,0,1,0,0-66.709Z" transform="translate(-299.953 -377.513)" fill="#f3f3f3" fill-rule="evenodd"/>
            <path id="Path_65168" data-name="Path 65168" d="M333.749,378.238a33.075,33.075,0,0,0-33.07,33.072v29.714c0,2.1.97,3.362,2.683,3.362h30.388a33.074,33.074,0,0,0,0-66.147Z" transform="translate(-299.834 -377.395)" fill="#efeff0" fill-rule="evenodd"/>
            <path id="Path_65169" data-name="Path 65169" d="M333.631,378.4a32.793,32.793,0,0,0-32.79,32.79v29.461c0,2.085.961,3.332,2.662,3.332h30.128a32.791,32.791,0,1,0,0-65.583Z" transform="translate(-299.715 -377.275)" fill="#ececec" fill-rule="evenodd"/>
            <path id="Path_65170" data-name="Path 65170" d="M333.512,378.563A32.514,32.514,0,0,0,301,411.072V440.28c0,2.068.956,3.3,2.639,3.3h29.87a32.511,32.511,0,0,0,0-65.022Z" transform="translate(-299.597 -377.157)" fill="#e8e9e9" fill-rule="evenodd"/>
            <path id="Path_65171" data-name="Path 65171" d="M333.394,378.726a32.232,32.232,0,0,0-32.229,32.227v28.955c0,2.051.947,3.275,2.619,3.275h29.61a32.229,32.229,0,1,0,0-64.457Z" transform="translate(-299.478 -377.037)" fill="#e5e5e6" fill-rule="evenodd"/>
            <path id="Path_65172" data-name="Path 65172" d="M333.274,378.888a31.95,31.95,0,0,0-31.946,31.946v28.7c0,2.033.937,3.247,2.593,3.247h29.354a31.948,31.948,0,1,0,0-63.9Z" transform="translate(-299.359 -376.919)" fill="#e1e2e3" fill-rule="evenodd"/>
            <path id="Path_65173" data-name="Path 65173" d="M333.156,379.05a31.67,31.67,0,0,0-31.666,31.666v28.451c0,2.014.93,3.218,2.572,3.218h29.094a31.667,31.667,0,0,0,0-63.335Z" transform="translate(-299.24 -376.8)" fill="#dedfdf" fill-rule="evenodd"/>
            <path id="Path_65174" data-name="Path 65174" d="M333.037,379.212A31.391,31.391,0,0,0,301.652,410.6v28.2c0,2,.923,3.19,2.549,3.19h28.836a31.387,31.387,0,0,0,0-62.774Z" transform="translate(-299.122 -376.682)" fill="#dadbdc" fill-rule="evenodd"/>
            <path id="Path_65175" data-name="Path 65175" d="M332.919,379.375a31.109,31.109,0,0,0-31.1,31.1v27.946c0,1.978.914,3.161,2.527,3.161h28.578a31.1,31.1,0,1,0,0-62.209Z" transform="translate(-299.003 -376.562)" fill="#d7d8d9" fill-rule="evenodd"/>
            <path id="Path_65176" data-name="Path 65176" d="M332.8,379.537a30.826,30.826,0,0,0-30.822,30.822v27.693c0,1.96.906,3.133,2.5,3.133H332.8a30.824,30.824,0,1,0,0-61.648Z" transform="translate(-298.884 -376.444)" fill="#d4d4d5" fill-rule="evenodd"/>
            <path id="Path_65177" data-name="Path 65177" d="M332.68,379.7a30.543,30.543,0,0,0-30.54,30.54v27.44c0,1.943.9,3.1,2.478,3.1H332.68a30.542,30.542,0,1,0,0-61.083Z" transform="translate(-298.765 -376.325)" fill="#d0d1d2" fill-rule="evenodd"/>
            <path id="Path_65178" data-name="Path 65178" d="M332.561,379.862A30.264,30.264,0,0,0,302.3,410.121v27.187c0,1.926.887,3.076,2.458,3.076h27.8a30.261,30.261,0,1,0,0-60.522Z" transform="translate(-298.646 -376.206)" fill="#cdcecf" fill-rule="evenodd"/>
            <path id="Path_65179" data-name="Path 65179" d="M332.443,380.024A29.983,29.983,0,0,0,302.464,410v26.936c0,1.905.882,3.046,2.435,3.046h27.544a29.981,29.981,0,0,0,0-59.961Z" transform="translate(-298.527 -376.087)" fill="#c9cacb" fill-rule="evenodd"/>
            <path id="Path_65180" data-name="Path 65180" d="M332.324,380.187a29.7,29.7,0,0,0-29.7,29.7v26.683c0,1.888.871,3.017,2.411,3.017h27.286a29.7,29.7,0,1,0,0-59.4Z" transform="translate(-298.408 -375.968)" fill="#c6c7c8" fill-rule="evenodd"/>
            <path id="Path_65181" data-name="Path 65181" d="M332.2,380.349a29.419,29.419,0,0,0-29.416,29.416V436.2c0,1.87.862,2.989,2.388,2.989H332.2a29.418,29.418,0,1,0,0-58.835Z" transform="translate(-298.29 -375.85)" fill="#c2c3c5" fill-rule="evenodd"/>
            <path id="Path_65182" data-name="Path 65182" d="M332.086,380.511a29.139,29.139,0,0,0-29.135,29.136v26.177c0,1.853.856,2.961,2.366,2.961h26.77a29.137,29.137,0,1,0,0-58.274Z" transform="translate(-298.171 -375.731)" fill="#bfc0c2" fill-rule="evenodd"/>
            <path id="Path_65183" data-name="Path 65183" d="M331.968,380.674a28.858,28.858,0,0,0-28.855,28.853v25.925c0,1.836.847,2.932,2.345,2.932h26.51a28.855,28.855,0,1,0,0-57.71Z" transform="translate(-298.052 -375.612)" fill="#bcbdbe" fill-rule="evenodd"/>
            <path id="Path_65184" data-name="Path 65184" d="M331.849,380.836a28.576,28.576,0,0,0-28.573,28.573V435.08c0,1.818.838,2.9,2.319,2.9h26.254a28.574,28.574,0,1,0,0-57.149Z" transform="translate(-297.933 -375.493)" fill="#b8b9bb" fill-rule="evenodd"/>
            <path id="Path_65185" data-name="Path 65185" d="M331.73,381a28.294,28.294,0,0,0-28.292,28.29V434.71c0,1.8.831,2.873,2.3,2.873H331.73a28.292,28.292,0,1,0,0-56.584Z" transform="translate(-297.815 -375.374)" fill="#b5b6b8" fill-rule="evenodd"/>
            <path id="Path_65186" data-name="Path 65186" d="M331.611,381.161a28.013,28.013,0,0,0-28.01,28.01v25.168c0,1.78.821,2.846,2.274,2.846h25.736a28.011,28.011,0,1,0,0-56.023Z" transform="translate(-297.695 -375.255)" fill="#b1b3b4" fill-rule="evenodd"/>
          </g>
          <g id="Group_25017" data-name="Group 25017" transform="translate(325.434 599.697)">
            <path id="Path_65187" data-name="Path 65187" d="M284.436,464.719a33.919,33.919,0,0,1,33.917,33.915V529.1c0,2.158-1,3.448-2.754,3.448H284.438a33.916,33.916,0,0,1,0-67.833Z" transform="translate(-250.521 -464.719)" fill="#f9fafa" fill-rule="evenodd"/>
            <path id="Path_65188" data-name="Path 65188" d="M284.317,464.881a33.64,33.64,0,0,1,33.637,33.635v30.218c0,2.137-.989,3.417-2.731,3.417h-30.9a33.635,33.635,0,0,1,0-67.27Z" transform="translate(-250.402 -464.6)" fill="#f6f6f6" fill-rule="evenodd"/>
            <path id="Path_65189" data-name="Path 65189" d="M284.2,465.043A33.358,33.358,0,0,1,317.553,498.4v29.965c0,2.12-.979,3.389-2.709,3.389H284.2a33.354,33.354,0,0,1,0-66.709Z" transform="translate(-250.283 -464.482)" fill="#f3f3f3" fill-rule="evenodd"/>
            <path id="Path_65190" data-name="Path 65190" d="M284.079,465.206a33.076,33.076,0,0,1,33.074,33.072V527.99c0,2.1-.972,3.361-2.686,3.361H284.081a33.073,33.073,0,0,1,0-66.146Z" transform="translate(-250.164 -464.363)" fill="#efeff0" fill-rule="evenodd"/>
            <path id="Path_65191" data-name="Path 65191" d="M283.961,465.368a32.8,32.8,0,0,1,32.793,32.791v29.459c0,2.085-.965,3.332-2.664,3.332H283.962a32.791,32.791,0,0,1,0-65.583Z" transform="translate(-250.045 -464.244)" fill="#ececec" fill-rule="evenodd"/>
            <path id="Path_65192" data-name="Path 65192" d="M283.842,465.53a32.513,32.513,0,0,1,32.511,32.511v29.206c0,2.068-.954,3.3-2.639,3.3h-29.87a32.511,32.511,0,0,1,0-65.022Z" transform="translate(-249.927 -464.125)" fill="#e8e9e9" fill-rule="evenodd"/>
            <path id="Path_65193" data-name="Path 65193" d="M283.723,465.692a32.234,32.234,0,0,1,32.23,32.23v28.954c0,2.051-.947,3.277-2.617,3.277H283.725a32.23,32.23,0,0,1,0-64.461Z" transform="translate(-249.807 -464.007)" fill="#e5e5e6" fill-rule="evenodd"/>
            <path id="Path_65194" data-name="Path 65194" d="M283.6,465.855a31.953,31.953,0,0,1,31.95,31.948v28.7c0,2.03-.939,3.246-2.594,3.246H283.606a31.948,31.948,0,0,1,0-63.9Z" transform="translate(-249.689 -463.888)" fill="#e1e2e3" fill-rule="evenodd"/>
            <path id="Path_65195" data-name="Path 65195" d="M283.486,466.017a31.67,31.67,0,0,1,31.668,31.667v28.45c0,2.012-.93,3.218-2.57,3.218h-29.1a31.668,31.668,0,0,1,0-63.335Z" transform="translate(-249.57 -463.769)" fill="#dedfdf" fill-rule="evenodd"/>
            <path id="Path_65196" data-name="Path 65196" d="M283.366,466.179a31.39,31.39,0,0,1,31.387,31.387v28.2c0,2-.921,3.19-2.549,3.19H283.368a31.387,31.387,0,0,1,0-62.774Z" transform="translate(-249.451 -463.65)" fill="#dadbdc" fill-rule="evenodd"/>
            <path id="Path_65197" data-name="Path 65197" d="M283.248,466.342a31.108,31.108,0,0,1,31.106,31.1v27.944c0,1.978-.914,3.161-2.527,3.161H283.25a31.1,31.1,0,0,1,0-62.209Z" transform="translate(-249.332 -463.531)" fill="#d7d8d9" fill-rule="evenodd"/>
            <path id="Path_65198" data-name="Path 65198" d="M283.129,466.5a30.826,30.826,0,0,1,30.824,30.824v27.691c0,1.961-.906,3.133-2.5,3.133h-28.32a30.824,30.824,0,0,1,0-61.648Z" transform="translate(-249.214 -463.413)" fill="#d4d4d5" fill-rule="evenodd"/>
            <path id="Path_65199" data-name="Path 65199" d="M283.01,466.666a30.547,30.547,0,0,1,30.543,30.543v27.438c0,1.943-.9,3.105-2.48,3.105H283.012a30.543,30.543,0,0,1,0-61.087Z" transform="translate(-249.095 -463.294)" fill="#d0d1d2" fill-rule="evenodd"/>
            <path id="Path_65200" data-name="Path 65200" d="M282.891,466.829a30.265,30.265,0,0,1,30.263,30.261v27.187c0,1.924-.89,3.074-2.458,3.074h-27.8a30.261,30.261,0,0,1,0-60.522Z" transform="translate(-248.976 -463.175)" fill="#cdcecf" fill-rule="evenodd"/>
            <path id="Path_65201" data-name="Path 65201" d="M282.773,466.991a29.985,29.985,0,0,1,29.982,29.981v26.934c0,1.905-.881,3.046-2.435,3.046H282.775a29.981,29.981,0,0,1,0-59.961Z" transform="translate(-248.857 -463.056)" fill="#c9cacb" fill-rule="evenodd"/>
            <path id="Path_65202" data-name="Path 65202" d="M282.654,467.153a29.7,29.7,0,0,1,29.7,29.7v26.681c0,1.888-.873,3.019-2.411,3.019H282.655a29.7,29.7,0,0,1,0-59.4Z" transform="translate(-248.738 -462.938)" fill="#c6c7c8" fill-rule="evenodd"/>
            <path id="Path_65203" data-name="Path 65203" d="M282.535,467.315a29.423,29.423,0,0,1,29.419,29.419v26.429c0,1.87-.864,2.989-2.39,2.989H282.537a29.419,29.419,0,0,1,0-58.837Z" transform="translate(-248.62 -462.819)" fill="#c2c3c5" fill-rule="evenodd"/>
            <path id="Path_65204" data-name="Path 65204" d="M282.416,467.478a29.141,29.141,0,0,1,29.139,29.137v26.176c0,1.853-.857,2.962-2.367,2.962h-26.77a29.137,29.137,0,0,1,0-58.274Z" transform="translate(-248.501 -462.7)" fill="#bfc0c2" fill-rule="evenodd"/>
            <path id="Path_65205" data-name="Path 65205" d="M282.3,467.64A28.859,28.859,0,0,1,311.154,496.5v25.923c0,1.836-.849,2.934-2.343,2.934H282.3a28.857,28.857,0,0,1,0-57.713Z" transform="translate(-248.382 -462.581)" fill="#bcbdbe" fill-rule="evenodd"/>
            <path id="Path_65206" data-name="Path 65206" d="M282.179,467.8a28.58,28.58,0,0,1,28.576,28.576V522.05c0,1.817-.84,2.9-2.321,2.9H282.18a28.575,28.575,0,0,1,0-57.15Z" transform="translate(-248.263 -462.463)" fill="#b8b9bb" fill-rule="evenodd"/>
            <path id="Path_65207" data-name="Path 65207" d="M282.06,467.965a28.3,28.3,0,0,1,28.3,28.294v25.419c0,1.8-.833,2.875-2.3,2.875h-26a28.294,28.294,0,0,1,0-56.588Z" transform="translate(-248.145 -462.343)" fill="#b5b6b8" fill-rule="evenodd"/>
            <path id="Path_65208" data-name="Path 65208" d="M281.941,468.127a28.016,28.016,0,0,1,28.013,28.013v25.166c0,1.78-.823,2.845-2.274,2.845H281.942a28.012,28.012,0,0,1,0-56.025Z" transform="translate(-248.025 -462.225)" fill="#b1b3b4" fill-rule="evenodd"/>
          </g>
          <g id="Group_25018" data-name="Group 25018" transform="translate(411.456 748.923)">
            <path id="Path_65209" data-name="Path 65209" d="M334.106,550.883A33.921,33.921,0,0,0,300.191,584.8v30.469c0,2.158,1,3.448,2.754,3.448h31.162a33.917,33.917,0,0,0,0-67.834Z" transform="translate(-300.191 -550.883)" fill="#f9fafa" fill-rule="evenodd"/>
            <path id="Path_65210" data-name="Path 65210" d="M333.988,551.045a33.642,33.642,0,0,0-33.635,33.637V614.9c0,2.137.989,3.419,2.733,3.419h30.9a33.637,33.637,0,0,0,0-67.273Z" transform="translate(-300.072 -550.764)" fill="#f6f6f6" fill-rule="evenodd"/>
            <path id="Path_65211" data-name="Path 65211" d="M333.869,551.207a33.361,33.361,0,0,0-33.353,33.356v29.963c0,2.122.98,3.391,2.709,3.391h30.644a33.355,33.355,0,0,0,0-66.711Z" transform="translate(-299.953 -550.646)" fill="#f3f3f3" fill-rule="evenodd"/>
            <path id="Path_65212" data-name="Path 65212" d="M333.749,551.37a33.075,33.075,0,0,0-33.07,33.074v29.712c0,2.1.97,3.36,2.683,3.36h30.388a33.073,33.073,0,0,0,0-66.146Z" transform="translate(-299.834 -550.527)" fill="#efeff0" fill-rule="evenodd"/>
            <path id="Path_65213" data-name="Path 65213" d="M333.631,551.532a32.8,32.8,0,0,0-32.79,32.793v29.459c0,2.085.961,3.332,2.662,3.332h30.128a32.792,32.792,0,0,0,0-65.585Z" transform="translate(-299.715 -550.408)" fill="#ececec" fill-rule="evenodd"/>
            <path id="Path_65214" data-name="Path 65214" d="M333.512,551.694A32.515,32.515,0,0,0,301,584.207v29.206c0,2.066.956,3.3,2.639,3.3h29.87a32.512,32.512,0,0,0,0-65.024Z" transform="translate(-299.597 -550.289)" fill="#e8e9e9" fill-rule="evenodd"/>
            <path id="Path_65215" data-name="Path 65215" d="M333.394,551.856a32.236,32.236,0,0,0-32.229,32.232v28.954c0,2.051.947,3.277,2.619,3.277h29.61a32.231,32.231,0,0,0,0-64.462Z" transform="translate(-299.478 -550.171)" fill="#e5e5e6" fill-rule="evenodd"/>
            <path id="Path_65216" data-name="Path 65216" d="M333.274,552.019a31.951,31.951,0,0,0-31.946,31.95v28.7c0,2.031.937,3.246,2.593,3.246h29.354a31.949,31.949,0,1,0,0-63.9Z" transform="translate(-299.359 -550.051)" fill="#e1e2e3" fill-rule="evenodd"/>
            <path id="Path_65217" data-name="Path 65217" d="M333.156,552.182a31.67,31.67,0,0,0-31.666,31.667V612.3c0,2.016.93,3.22,2.572,3.22h29.094a31.667,31.667,0,1,0,0-63.335Z" transform="translate(-299.24 -549.932)" fill="#dedfdf" fill-rule="evenodd"/>
            <path id="Path_65218" data-name="Path 65218" d="M333.037,552.344a31.391,31.391,0,0,0-31.385,31.387v28.2c0,2,.923,3.19,2.549,3.19h28.836a31.387,31.387,0,0,0,0-62.774Z" transform="translate(-299.122 -549.814)" fill="#dadbdc" fill-rule="evenodd"/>
            <path id="Path_65219" data-name="Path 65219" d="M332.919,552.506a31.111,31.111,0,0,0-31.1,31.106v27.944c0,1.978.914,3.162,2.527,3.162h28.578a31.106,31.106,0,0,0,0-62.213Z" transform="translate(-299.003 -549.695)" fill="#d7d8d9" fill-rule="evenodd"/>
            <path id="Path_65220" data-name="Path 65220" d="M332.8,552.669a30.826,30.826,0,0,0-30.822,30.824v27.691c0,1.961.906,3.133,2.5,3.133H332.8a30.824,30.824,0,1,0,0-61.648Z" transform="translate(-298.884 -549.576)" fill="#d4d4d5" fill-rule="evenodd"/>
            <path id="Path_65221" data-name="Path 65221" d="M332.68,552.831a30.544,30.544,0,0,0-30.54,30.543v27.438c0,1.943.9,3.1,2.478,3.1H332.68a30.543,30.543,0,1,0,0-61.085Z" transform="translate(-298.765 -549.457)" fill="#d0d1d2" fill-rule="evenodd"/>
            <path id="Path_65222" data-name="Path 65222" d="M332.561,552.993A30.265,30.265,0,0,0,302.3,583.256v27.187c0,1.922.887,3.074,2.458,3.074h27.8a30.262,30.262,0,1,0,0-60.524Z" transform="translate(-298.646 -549.339)" fill="#cdcecf" fill-rule="evenodd"/>
            <path id="Path_65223" data-name="Path 65223" d="M332.443,553.155a29.985,29.985,0,0,0-29.979,29.982V610.07c0,1.907.882,3.048,2.435,3.048h27.544a29.981,29.981,0,0,0,0-59.963Z" transform="translate(-298.527 -549.22)" fill="#c9cacb" fill-rule="evenodd"/>
            <path id="Path_65224" data-name="Path 65224" d="M332.324,553.318a29.7,29.7,0,0,0-29.7,29.7V609.7c0,1.888.871,3.017,2.411,3.017h27.286a29.7,29.7,0,1,0,0-59.4Z" transform="translate(-298.408 -549.101)" fill="#c6c7c8" fill-rule="evenodd"/>
            <path id="Path_65225" data-name="Path 65225" d="M332.2,553.48A29.42,29.42,0,0,0,302.789,582.9v26.429c0,1.872.862,2.989,2.388,2.989H332.2a29.419,29.419,0,1,0,0-58.837Z" transform="translate(-298.29 -548.982)" fill="#c2c3c5" fill-rule="evenodd"/>
            <path id="Path_65226" data-name="Path 65226" d="M332.086,553.643a29.139,29.139,0,0,0-29.135,29.137v26.176c0,1.853.856,2.962,2.366,2.962h26.77a29.137,29.137,0,1,0,0-58.274Z" transform="translate(-298.171 -548.863)" fill="#bfc0c2" fill-rule="evenodd"/>
            <path id="Path_65227" data-name="Path 65227" d="M331.968,553.8a28.86,28.86,0,0,0-28.855,28.857v25.923c0,1.836.847,2.934,2.345,2.934h26.51a28.857,28.857,0,0,0,0-57.713Z" transform="translate(-298.052 -548.744)" fill="#bcbdbe" fill-rule="evenodd"/>
            <path id="Path_65228" data-name="Path 65228" d="M331.849,553.968a28.574,28.574,0,0,0-28.573,28.574v25.672c0,1.817.838,2.9,2.319,2.9h26.254a28.574,28.574,0,1,0,0-57.149Z" transform="translate(-297.933 -548.625)" fill="#b8b9bb" fill-rule="evenodd"/>
            <path id="Path_65229" data-name="Path 65229" d="M331.73,554.13a28.3,28.3,0,0,0-28.292,28.294v25.417c0,1.8.831,2.877,2.3,2.877H331.73a28.294,28.294,0,0,0,0-56.588Z" transform="translate(-297.815 -548.507)" fill="#b5b6b8" fill-rule="evenodd"/>
            <path id="Path_65230" data-name="Path 65230" d="M331.611,554.292a28.014,28.014,0,0,0-28.01,28.013v25.166c0,1.78.821,2.847,2.274,2.847h25.736a28.013,28.013,0,1,0,0-56.026Z" transform="translate(-297.695 -548.388)" fill="#b1b3b4" fill-rule="evenodd"/>
          </g>
          <path id="Path_65231" data-name="Path 65231" d="M287.19,287.331a33.92,33.92,0,0,1,33.916,33.917v33.917H287.19a33.917,33.917,0,0,1,0-67.834Z" transform="translate(76.928 5.151)" fill="#415214" fill-rule="evenodd"/>
          <path id="Path_65232" data-name="Path 65232" d="M336.861,373.5a33.922,33.922,0,0,0-33.917,33.917V441.33h33.915a33.917,33.917,0,0,0,0-67.834Z" transform="translate(113.28 68.213)" fill="#92934e" fill-rule="evenodd"/>
          <path id="Path_65233" data-name="Path 65233" d="M287.19,460.463a33.919,33.919,0,0,1,33.916,33.915V528.3H287.19a33.916,33.916,0,0,1,0-67.833Z" transform="translate(76.928 131.863)" fill="#eae699" fill-rule="evenodd"/>
          <path id="Path_65234" data-name="Path 65234" d="M336.861,546.628a33.92,33.92,0,0,0-33.917,33.916v33.917h33.915a33.916,33.916,0,0,0,0-67.833Z" transform="translate(113.28 194.926)" fill="#ed8730" fill-rule="evenodd"/>
          <path id="Path_65235" data-name="Path 65235" d="M331.358,601.6a1.227,1.227,0,0,1,2.454,0,44.166,44.166,0,0,0,44.031,44.03v.005H629.036v-.005c40.886,0,62.284,49.864,32.831,79.317A46.338,46.338,0,0,1,629.036,738.6H292.715c-40.884,0-62.28-49.866-32.831-79.317s79.319-8.05,79.319,32.831v31.314a1.228,1.228,0,0,1-2.456,0V692.117c0-38.7-47.213-59.009-75.126-31.1s-7.608,75.126,31.094,75.126H629.036c38.7,0,59.007-47.213,31.1-75.126a43.9,43.9,0,0,0-31.1-12.935v0H377.844v0A46.62,46.62,0,0,1,331.358,601.6Z" transform="translate(71.753 234.273)" fill="#707173"/>
          <g id="Group_25019" data-name="Group 25019" transform="translate(325.434 899.851)">
            <path id="Path_65236" data-name="Path 65236" d="M284.436,638.03a33.92,33.92,0,0,1,33.917,33.915v30.471c0,2.156-1,3.447-2.754,3.447H284.438a33.916,33.916,0,0,1,0-67.833Z" transform="translate(-250.521 -638.03)" fill="#f9fafa" fill-rule="evenodd"/>
            <path id="Path_65237" data-name="Path 65237" d="M284.317,638.192a33.639,33.639,0,0,1,33.637,33.635v30.218c0,2.139-.989,3.419-2.731,3.419h-30.9a33.636,33.636,0,0,1,0-67.271Z" transform="translate(-250.402 -637.912)" fill="#f6f6f6" fill-rule="evenodd"/>
            <path id="Path_65238" data-name="Path 65238" d="M284.2,638.355a33.356,33.356,0,0,1,33.354,33.353v29.965c0,2.122-.979,3.389-2.709,3.389H284.2a33.353,33.353,0,1,1,0-66.707Z" transform="translate(-250.283 -637.792)" fill="#f3f3f3" fill-rule="evenodd"/>
            <path id="Path_65239" data-name="Path 65239" d="M284.079,638.517a33.077,33.077,0,0,1,33.074,33.072V701.3c0,2.1-.972,3.362-2.686,3.362H284.081a33.073,33.073,0,0,1,0-66.146Z" transform="translate(-250.164 -637.674)" fill="#efeff0" fill-rule="evenodd"/>
            <path id="Path_65240" data-name="Path 65240" d="M283.961,638.679a32.8,32.8,0,0,1,32.793,32.792v29.461c0,2.083-.965,3.332-2.664,3.332H283.962a32.792,32.792,0,0,1,0-65.585Z" transform="translate(-250.045 -637.555)" fill="#ececec" fill-rule="evenodd"/>
            <path id="Path_65241" data-name="Path 65241" d="M283.842,638.842a32.513,32.513,0,0,1,32.511,32.509v29.208c0,2.066-.954,3.3-2.639,3.3h-29.87a32.51,32.51,0,0,1,0-65.02Z" transform="translate(-249.927 -637.436)" fill="#e8e9e9" fill-rule="evenodd"/>
            <path id="Path_65242" data-name="Path 65242" d="M283.723,639a32.232,32.232,0,0,1,32.23,32.229v28.955c0,2.049-.947,3.275-2.617,3.275H283.725a32.229,32.229,0,0,1,0-64.459Z" transform="translate(-249.807 -637.317)" fill="#e5e5e6" fill-rule="evenodd"/>
            <path id="Path_65243" data-name="Path 65243" d="M283.6,639.166a31.953,31.953,0,0,1,31.95,31.948v28.7c0,2.032-.939,3.247-2.594,3.247H283.606a31.949,31.949,0,0,1,0-63.9Z" transform="translate(-249.689 -637.199)" fill="#e1e2e3" fill-rule="evenodd"/>
            <path id="Path_65244" data-name="Path 65244" d="M283.486,639.328A31.671,31.671,0,0,1,315.153,671v28.45c0,2.014-.93,3.218-2.57,3.218h-29.1a31.668,31.668,0,0,1,0-63.335Z" transform="translate(-249.57 -637.08)" fill="#dedfdf" fill-rule="evenodd"/>
            <path id="Path_65245" data-name="Path 65245" d="M283.366,639.491a31.389,31.389,0,0,1,31.387,31.385v28.2c0,2-.921,3.19-2.549,3.19H283.368a31.386,31.386,0,0,1,0-62.772Z" transform="translate(-249.451 -636.961)" fill="#dadbdc" fill-rule="evenodd"/>
            <path id="Path_65246" data-name="Path 65246" d="M283.248,639.653a31.109,31.109,0,0,1,31.106,31.1V698.7c0,1.976-.914,3.161-2.527,3.161H283.25a31.105,31.105,0,0,1,0-62.211Z" transform="translate(-249.332 -636.842)" fill="#d7d8d9" fill-rule="evenodd"/>
            <path id="Path_65247" data-name="Path 65247" d="M283.129,639.815a30.826,30.826,0,0,1,30.824,30.824v27.693c0,1.959-.906,3.131-2.5,3.131h-28.32a30.824,30.824,0,0,1,0-61.648Z" transform="translate(-249.214 -636.724)" fill="#d4d4d5" fill-rule="evenodd"/>
            <path id="Path_65248" data-name="Path 65248" d="M283.01,639.978a30.545,30.545,0,0,1,30.543,30.542v27.44c0,1.942-.9,3.1-2.48,3.1H283.012a30.543,30.543,0,0,1,0-61.085Z" transform="translate(-249.095 -636.604)" fill="#d0d1d2" fill-rule="evenodd"/>
            <path id="Path_65249" data-name="Path 65249" d="M282.891,640.14A30.266,30.266,0,0,1,313.154,670.4v27.187c0,1.924-.89,3.076-2.458,3.076h-27.8a30.262,30.262,0,0,1,0-60.524Z" transform="translate(-248.976 -636.486)" fill="#cdcecf" fill-rule="evenodd"/>
            <path id="Path_65250" data-name="Path 65250" d="M282.773,640.3a29.985,29.985,0,0,1,29.982,29.981v26.934c0,1.907-.881,3.046-2.435,3.046H282.775a29.981,29.981,0,0,1,0-59.961Z" transform="translate(-248.857 -636.367)" fill="#c9cacb" fill-rule="evenodd"/>
            <path id="Path_65251" data-name="Path 65251" d="M282.654,640.465a29.7,29.7,0,0,1,29.7,29.7v26.681c0,1.889-.873,3.019-2.411,3.019H282.655a29.7,29.7,0,0,1,0-59.4Z" transform="translate(-248.738 -636.248)" fill="#c6c7c8" fill-rule="evenodd"/>
            <path id="Path_65252" data-name="Path 65252" d="M282.535,640.627a29.422,29.422,0,0,1,29.419,29.418v26.43c0,1.869-.864,2.989-2.39,2.989H282.537a29.419,29.419,0,0,1,0-58.837Z" transform="translate(-248.62 -636.129)" fill="#c2c3c5" fill-rule="evenodd"/>
            <path id="Path_65253" data-name="Path 65253" d="M282.416,640.789a29.141,29.141,0,0,1,29.139,29.137V696.1c0,1.851-.857,2.96-2.367,2.96h-26.77a29.137,29.137,0,0,1,0-58.274Z" transform="translate(-248.501 -636.011)" fill="#bfc0c2" fill-rule="evenodd"/>
            <path id="Path_65254" data-name="Path 65254" d="M282.3,640.951a28.86,28.86,0,0,1,28.857,28.857v25.924c0,1.834-.849,2.932-2.343,2.932H282.3a28.857,28.857,0,0,1,0-57.713Z" transform="translate(-248.382 -635.892)" fill="#bcbdbe" fill-rule="evenodd"/>
            <path id="Path_65255" data-name="Path 65255" d="M282.179,641.114a28.578,28.578,0,0,1,28.576,28.574V695.36c0,1.817-.84,2.9-2.321,2.9H282.18a28.575,28.575,0,0,1,0-57.15Z" transform="translate(-248.263 -635.773)" fill="#b8b9bb" fill-rule="evenodd"/>
            <path id="Path_65256" data-name="Path 65256" d="M282.06,641.276a28.3,28.3,0,0,1,28.3,28.294v25.419c0,1.8-.833,2.875-2.3,2.875h-26a28.294,28.294,0,0,1,0-56.588Z" transform="translate(-248.145 -635.654)" fill="#b5b6b8" fill-rule="evenodd"/>
            <path id="Path_65257" data-name="Path 65257" d="M281.941,641.438a28.016,28.016,0,0,1,28.013,28.013v25.166c0,1.782-.823,2.847-2.274,2.847H281.942a28.013,28.013,0,0,1,0-56.026Z" transform="translate(-248.025 -635.536)" fill="#b1b3b4" fill-rule="evenodd"/>
          </g>
          <path id="Path_65258" data-name="Path 65258" d="M287.19,633.774a33.92,33.92,0,0,1,33.916,33.916v33.917H287.19a33.916,33.916,0,0,1,0-67.833Z" transform="translate(76.928 258.706)" fill="#db311c" fill-rule="evenodd"/>
          <g id="Group_25020" data-name="Group 25020" transform="translate(348.421 316.169)">
            <path id="Path_65259" data-name="Path 65259" d="M279.663,313.491c0,7.064-2.944,9.92-7.949,9.92-5.035,0-7.92-2.856-7.92-9.92v-2.532c0-7.066,2.885-9.951,7.92-9.951,5.005,0,7.949,2.885,7.949,9.951Zm-5.035-2.532c0-4.622-1.266-5.771-2.915-5.771s-2.885,1.148-2.885,5.771v2.532c0,4.621,1.237,5.739,2.885,5.739s2.915-1.119,2.915-5.739Z" transform="translate(-263.794 -301.008)" fill="#fff"/>
            <path id="Path_65260" data-name="Path 65260" d="M284.859,322.446a.565.565,0,0,1-.558.589h-3.857a.591.591,0,0,1-.589-.589V306.2l-3.3,1.354a1.018,1.018,0,0,1-.353.088c-.206,0-.324-.118-.324-.383V303.9a.406.406,0,0,1,.294-.412l4.8-2.208a1.553,1.553,0,0,1,.677-.118h2.65a.486.486,0,0,1,.558.559Z" transform="translate(-254.948 -300.896)" fill="#fff"/>
          </g>
          <g id="Group_25021" data-name="Group 25021" transform="translate(348.421 917.908)">
            <path id="Path_65261" data-name="Path 65261" d="M279.663,660.938c0,7.064-2.944,9.922-7.949,9.922-5.035,0-7.92-2.858-7.92-9.922v-2.532c0-7.064,2.885-9.95,7.92-9.95,5.005,0,7.949,2.885,7.949,9.95Zm-5.035-2.532c0-4.622-1.266-5.771-2.915-5.771s-2.885,1.148-2.885,5.771v2.532c0,4.622,1.237,5.741,2.885,5.741s2.915-1.119,2.915-5.741Z" transform="translate(-263.794 -648.456)" fill="#fff"/>
            <path id="Path_65262" data-name="Path 65262" d="M289.538,663.535c0,4.681-2.766,7.213-7.948,7.213a19.981,19.981,0,0,1-5.8-.856c-.324-.087-.589-.206-.589-.648v-2.324a.5.5,0,0,1,.53-.53h.059a50.479,50.479,0,0,0,5.3.353c2.8,0,3.386-1.207,3.386-3.209V663.3c0-1.972-.913-2.709-4.181-2.709h-4.564a.421.421,0,0,1-.412-.412v-.029l.913-10.98a.586.586,0,0,1,.589-.561h11.453a.566.566,0,0,1,.587.561v2.944a.564.564,0,0,1-.587.558h-8.008l-.353,4.065h.854c5.092,0,8.772,1.47,8.772,6.564Z" transform="translate(-255.445 -648.345)" fill="#fff"/>
          </g>
          <g id="Group_25022" data-name="Group 25022" transform="translate(431.408 464.977)">
            <path id="Path_65263" data-name="Path 65263" d="M327.578,399.414c0,7.064-2.942,9.92-7.948,9.92-5.035,0-7.92-2.856-7.92-9.92v-2.532c0-7.066,2.885-9.951,7.92-9.951,5.005,0,7.948,2.885,7.948,9.951Zm-5.033-2.532c0-4.622-1.268-5.771-2.915-5.771s-2.885,1.148-2.885,5.771v2.532c0,4.621,1.237,5.739,2.885,5.739s2.915-1.119,2.915-5.739Z" transform="translate(-311.711 -386.931)" fill="#fff"/>
            <path id="Path_65264" data-name="Path 65264" d="M334.226,398.09l-2.5,1.676c-2.5,1.649-4.267,2.974-4.267,5.005v.118h9.3a.567.567,0,0,1,.589.559v3.033a.592.592,0,0,1-.589.589h-13.1a.591.591,0,0,1-.589-.589v-3a9.225,9.225,0,0,1,4-7.478l2.707-1.912c2.591-1.8,3-2.031,3-3.415,0-1.266-.736-1.767-3.121-1.767a54.777,54.777,0,0,0-5.8.383H323.8a.543.543,0,0,1-.53-.589v-2.3c0-.324.236-.471.559-.559a23.267,23.267,0,0,1,6.271-.913c5.415,0,7.506,1.855,7.506,5.623C337.61,394.939,336.432,396.588,334.226,398.09Z" transform="translate(-303.4 -386.931)" fill="#fff"/>
          </g>
          <g id="Group_25023" data-name="Group 25023" transform="translate(431.408 763.959)">
            <path id="Path_65265" data-name="Path 65265" d="M327.578,572.047c0,7.066-2.942,9.922-7.948,9.922-5.035,0-7.92-2.856-7.92-9.922v-2.53c0-7.066,2.885-9.951,7.92-9.951,5.005,0,7.948,2.885,7.948,9.951Zm-5.033-2.53c0-4.622-1.268-5.771-2.915-5.771s-2.885,1.148-2.885,5.771v2.53c0,4.622,1.237,5.741,2.885,5.741s2.915-1.119,2.915-5.741Z" transform="translate(-311.711 -559.565)" fill="#fff"/>
            <path id="Path_65266" data-name="Path 65266" d="M339.117,576.086a.591.591,0,0,1-.589.589h-1.943V581a.565.565,0,0,1-.559.589H332.11a.566.566,0,0,1-.558-.589v-4.328h-8.509a.591.591,0,0,1-.589-.589v-2.854a1.732,1.732,0,0,1,.324-.914l9.3-12.187a.887.887,0,0,1,.764-.412H336a.591.591,0,0,1,.589.591V572.79h1.943a.589.589,0,0,1,.589.587Zm-7.418-9.775c0-.116-.031-.175-.118-.175a.143.143,0,0,0-.088.059l-4.622,6.3a.241.241,0,0,0-.059.175c0,.088.059.119.177.119H331.7Z" transform="translate(-303.848 -559.453)" fill="#fff"/>
          </g>
          <g id="Group_25024" data-name="Group 25024" transform="translate(346.689 616.148)">
            <path id="Path_65267" data-name="Path 65267" d="M278.663,486.7c0,7.064-2.944,9.92-7.949,9.92-5.035,0-7.92-2.856-7.92-9.92v-2.532c0-7.064,2.885-9.95,7.92-9.95,5.005,0,7.949,2.885,7.949,9.95Zm-5.035-2.532c0-4.622-1.266-5.771-2.915-5.771s-2.885,1.148-2.885,5.771V486.7c0,4.622,1.237,5.74,2.885,5.74s2.915-1.117,2.915-5.74Z" transform="translate(-262.794 -474.218)" fill="#415214"/>
            <path id="Path_65268" data-name="Path 65268" d="M288.538,490.113c0,4.5-3.119,6.507-7.683,6.507a22,22,0,0,1-6.094-.823c-.324-.09-.559-.237-.559-.561v-2.355a.5.5,0,0,1,.53-.53h.059c2.09.208,4.24.267,5.859.267,2.12,0,2.915-.854,2.915-2.5v-.528c0-1.325-.471-2.532-2.385-2.532H276a.566.566,0,0,1-.559-.589v-2.5A.487.487,0,0,1,276,483.4h5.064a2.3,2.3,0,0,0,2.5-2.561v-.412c0-1.325-.618-2.208-2.915-2.208a50.954,50.954,0,0,0-5.8.353h-.059a.494.494,0,0,1-.53-.528v-2.357c0-.322.265-.469.589-.559a21.038,21.038,0,0,1,6.006-.911c4.8,0,7.683,1.647,7.683,6.034v.412a5.462,5.462,0,0,1-2.619,4.5,4.854,4.854,0,0,1,2.619,4.416Z" transform="translate(-254.445 -474.218)" fill="#415214"/>
          </g>
        </g>
      </g>
    </g>
  </g>
</svg>
