<svg xmlns="http://www.w3.org/2000/svg" width="121" height="121" viewBox="0 0 121 121">
  <g id="Group_25061" data-name="Group 25061" transform="translate(-215 -2069)">
    <g id="Group_1010" data-name="Group 1010" transform="translate(2476 5976)">
      <circle id="Ellipse_497" data-name="Ellipse 497" cx="60.5" cy="60.5" r="60.5" transform="translate(-2261 -3907)" fill="#92934e"/>
      <path id="Path_1178" data-name="Path 1178" d="M53.993,0A53.993,53.993,0,1,1,0,53.993,53.993,53.993,0,0,1,53.993,0Z" transform="translate(-2254 -3900)" fill="#fff"/>
    </g>
    <g id="Group_25033" data-name="Group 25033" transform="translate(-245.136 1957.508)">
      <g id="Group_25032" data-name="Group 25032" transform="translate(483.137 142.492)">
        <g id="Group_25031" data-name="Group 25031">
          <path id="Path_65274" data-name="Path 65274" d="M504.407,154.744a3.065,3.065,0,1,0,3.067,3.058A3.062,3.062,0,0,0,504.407,154.744Zm-8.675,2.961a4.178,4.178,0,0,1-1.578,2.629l3.254,3.4a3.741,3.741,0,0,0,1.91,1.065c.712.159,1,.1,1.286.177-.011,6.461,0,13.666,0,19.637a4.645,4.645,0,0,1,5.7,1.9,1.914,1.914,0,0,0,1.91-1.9c0-6.53,0-13.77,0-19.637.283-.081.574-.018,1.286-.177a3.733,3.733,0,0,0,1.91-1.065l2.855-2.982a4.629,4.629,0,0,1-1.883-2.277l-2.454,2.694c-.235.26-.853.207-2.26.207h-6.516c-1.408,0-2.025.053-2.26-.207l-3.157-3.463Z" transform="translate(-468.768 -126.512)" fill="#ed8730"/>
          <path id="Path_65275" data-name="Path 65275" d="M490.613,148c-1.148.484-2.666,2.039-3.466,4.823l-3.9,13.577v0a2.313,2.313,0,0,0,.194,1.866,2.469,2.469,0,0,0,1.449,1.055A2.319,2.319,0,0,0,487.7,168.1s-1.406,5.908-2.125,8.858a.878.878,0,0,0-.009.17.7.7,0,0,0,.728.62c1.348.053,2.708,0,4.049,0v16a2.722,2.722,0,0,0,5.41.431,2.722,2.722,0,0,0,5.41-.431v-16c1.341,0,2.7.053,4.049,0a.7.7,0,0,0,.728-.62.867.867,0,0,0-.009-.17c-.719-2.949-2.127-8.858-2.127-8.858a2.322,2.322,0,0,0,2.813,1.221,2.457,2.457,0,0,0,1.447-1.055,2.314,2.314,0,0,0,.194-1.866v0l-3.9-13.577c-.8-2.784-2.32-4.339-3.466-4.823a11.445,11.445,0,0,0-5.311-.887,11.173,11.173,0,0,0-4.97.887Z" transform="translate(-483.137 -136.471)" fill="#ed8730"/>
          <path id="Path_65276" data-name="Path 65276" d="M491.445,142.492a5.012,5.012,0,1,0,5.012,5.012A5.008,5.008,0,0,0,491.445,142.492Z" transform="translate(-478.831 -142.492)" fill="#ed8730"/>
          <path id="Path_65277" data-name="Path 65277" d="M513.545,147.159a4.493,4.493,0,0,0-1.373.2,2.7,2.7,0,0,0-1.756,1.59l-7.463,17.063a2.6,2.6,0,0,0,1.35,3.417,2.6,2.6,0,0,0,3.42-1.35l3.125-7.279v32.331a3.3,3.3,0,0,0,3.307,3.343,3.338,3.338,0,0,0,3.293-2.728l.014.083.016-.083a3.327,3.327,0,0,0,6.6-.615V160.8l3.125,7.279a2.6,2.6,0,0,0,4.8-.083,2.568,2.568,0,0,0-.035-1.984l-7.463-17.063a2.7,2.7,0,0,0-1.756-1.59,4.5,4.5,0,0,0-1.375-.2c-.871-.016-1.94-.051-3.915-.051s-3.044.035-3.915.051Z" transform="translate(-457.574 -136.472)" fill="#ed8730"/>
          <path id="Path_65278" data-name="Path 65278" d="M511.96,142.492a5.012,5.012,0,1,0,5.012,5.012A5.008,5.008,0,0,0,511.96,142.492Z" transform="translate(-452.074 -142.492)" fill="#ed8730"/>
        </g>
      </g>
    </g>
  </g>
</svg>
